<svg width="211" height="188" viewBox="0 0 211 188" fill="none" xmlns="http://www.w3.org/2000/svg">
<g clip-path="url(#clip0)">
<path d="M79.6591 35.7902C77.1157 32.1298 72.8428 28.0628 68.7734 29.893C65.7213 31.3164 64.9074 35.3835 65.9248 38.6371C66.9421 41.7891 69.2821 44.331 71.1133 47.0763C73.0463 49.8216 74.5723 53.1769 73.6567 56.4306C73.0463 52.5668 69.4855 49.4149 65.6196 49.3132C61.7536 49.1098 57.9894 52.0585 57.0738 55.8205C55.9547 60.3959 58.8033 64.9714 62.0588 68.3267C65.3144 71.682 69.1803 74.7323 71.1133 79.0028C69.5873 76.5625 65.5178 76.6642 63.5849 78.9011C61.6519 81.0363 61.5501 84.4933 62.6692 87.1369C63.7883 89.8821 65.823 92.0174 67.8578 94.1526C72.2324 98.728 76.8105 103.405 82.5077 106.252C88.2049 109.099 95.2247 110.014 100.922 107.065C113.842 100.253 105.093 85.1034 101.227 75.6474C95.5299 61.5144 88.3067 48.1947 79.6591 35.7902Z" fill="#BCBCA1"/>
<path d="M82.9146 87.3402C77.1157 88.357 71.5202 87.9503 65.7213 87.1369C59.2102 86.2218 58.1928 88.2553 63.5848 92.5257C72.6393 99.6431 84.9494 102.592 96.3438 102.185C100.515 101.982 105.297 100.965 107.026 97.2029C108.552 93.9492 107.026 89.6788 104.076 87.5436C101.125 85.4084 97.2594 84.9 93.5969 85.205C89.9344 85.6117 86.4754 86.6285 82.9146 87.3402Z" fill="#51221E"/>
<path d="M54.9373 83.6799C54.9373 83.7816 54.9373 83.8832 55.039 83.9849C55.446 85.7134 58.5998 87.6453 60.2276 87.9503C58.905 87.747 54.8356 85.5101 53.7165 86.7302C51.7835 88.7637 56.8703 91.1023 57.8877 91.9157C57.2772 92.0174 53.513 92.0174 55.039 93.4408C55.446 93.7459 55.9547 93.8476 56.4634 93.8476C59.9224 94.0509 67.4508 96.0844 69.2821 91.9157C70.0959 89.8822 69.3838 88.1537 69.1803 86.2218C68.9769 84.29 69.0786 82.3581 69.1803 80.4262C69.1803 79.7145 69.2821 79.0028 68.7734 78.4944C67.9595 77.5793 66.3317 78.1894 65.9248 79.3078C65.4161 80.4262 65.7213 81.6464 66.0265 82.7648C64.5005 82.4598 63.7883 80.8329 63.1779 79.4095C62.5675 77.986 61.4484 76.4609 59.9224 76.6642C55.7512 77.0709 60.5328 83.4765 61.6519 84.595C60.0241 83.2732 54.2252 79.4095 54.9373 83.6799Z" fill="#7F2A0D"/>
<path d="M141.311 77.1726C147.313 72.4955 154.435 69.5468 161.455 66.6999C174.273 61.5144 187.092 56.3289 199.809 51.1434C202.556 50.0249 205.913 48.9065 208.457 50.5333C212.526 52.9736 210.898 59.2775 208.253 63.1412C201.844 72.4955 191.975 79.5111 180.988 82.4598C186.583 80.6296 192.993 86.6285 191.874 92.4241C190.958 97.2029 186.176 100.457 181.293 101.27C176.41 101.982 171.527 100.66 166.847 99.4398C171.12 100.863 176.003 103.202 176.512 107.676C177.122 112.251 172.137 116.013 167.559 116.115C162.879 116.115 158.708 113.573 154.74 111.133C156.673 113.98 154.638 118.25 151.383 119.47C148.127 120.69 144.465 119.572 141.514 117.742C126.559 108.184 128.696 87.2386 141.311 77.1726Z" fill="#D5D5B7"/>
<path d="M146.703 110.319C151.078 123.029 152.095 136.755 146.093 147.634C141.006 156.887 130.018 162.073 119.54 161.361C109.061 160.649 99.2941 154.548 92.8848 146.313C83.0164 133.501 81.8973 121.809 85.6615 106.354C87.5945 98.5247 91.0535 90.8989 96.8524 85.205C106.924 75.4441 122.388 74.0206 132.053 85.0017C137.852 91.509 143.244 100.66 146.703 110.319Z" fill="#7F2A0D"/>
<path d="M101.634 93.2375C99.0906 91.509 97.8698 87.747 99.701 85.3067C103.058 80.9346 119.54 78.3927 121.167 85.6117C122.999 93.9492 106.619 96.5928 101.634 93.2375Z" fill="#51221E"/>
<path d="M115.267 123.639C113.028 123.537 110.282 122.622 110.078 120.385C109.773 118.047 112.418 116.521 114.554 115.606C118.319 114.081 122.083 112.556 125.847 111.031C133.172 108.082 136.122 111.438 130.527 117.233C126.559 121.402 120.964 123.842 115.267 123.639Z" fill="#51221E"/>
<path d="M91.6639 146.211C84.5424 152.21 82.7112 160.446 82.8129 169.393C82.8129 172.545 82.5077 176.206 79.9643 178.239C78.8452 179.154 77.4209 179.561 76.5053 180.679C75.3862 182.001 75.4879 184.035 76.4036 185.458C77.3192 186.882 78.947 187.797 80.6765 188C85.5598 188.61 89.7309 184.645 92.1726 180.476C94.6143 176.307 96.1403 171.427 99.5993 167.97C103.262 164.309 106.416 164.818 110.79 163.903C114.758 163.089 118.522 160.039 120.76 156.684C123.202 153.023 125.033 148.143 122.999 144.279C121.269 141.025 117.301 139.704 113.537 139.399C105.805 138.585 97.6663 141.127 91.6639 146.211Z" fill="#51221E"/>
<path d="M83.5251 133.908C86.1702 148.651 97.3611 159.327 112.622 163.191C119.946 165.021 127.882 165.428 135.105 163.191C142.328 160.954 148.941 155.972 151.993 149.058C154.333 143.872 154.537 137.975 153.519 132.485C153.112 129.841 152.502 126.994 151.383 124.554C150.671 122.927 148.738 121.199 148.941 119.267C147.619 128.723 139.48 135.027 130.12 133.501C120.862 131.976 112.418 125.672 107.636 117.742C100.718 106.252 99.9045 92.2207 101.024 78.9011C100.82 81.0363 95.1229 86.2218 93.8004 88.357C91.257 92.424 89.1205 96.6945 87.4928 101.168C84.2372 109.709 82.6094 118.86 82.8129 128.011C83.0164 129.943 83.2199 131.976 83.5251 133.908Z" fill="#D5D5B7"/>
<path d="M105.093 145.906C96.7507 149.973 92.783 157.395 90.6466 166.038C89.8327 169.19 88.6119 172.545 85.6615 173.867C84.3389 174.477 82.8129 174.477 81.6938 175.29C80.2695 176.307 79.8626 178.239 80.3713 179.866C80.8799 181.493 82.3042 182.713 83.8303 183.425C88.3066 185.255 93.4952 182.509 96.9542 179.052C100.413 175.595 103.16 171.325 107.331 168.783C111.808 166.14 114.656 167.461 119.234 167.766C123.202 167.97 127.678 166.038 130.629 163.293C133.884 160.344 136.936 156.175 135.919 151.905C135.003 148.346 131.544 146.008 128.085 144.787C120.76 142.144 112.215 142.551 105.093 145.906Z" fill="#7F2A0D"/>
<path d="M84.6441 117.131C89.0188 117.131 94.4108 119.978 98.7854 120.69C108.552 122.317 118.319 121.402 127.17 116.623C130.425 114.895 133.477 112.658 135.512 109.506C137.445 106.354 138.157 102.287 136.428 98.9313C134.291 94.7626 129.001 93.1358 124.423 93.9492C119.845 94.7626 115.877 97.5079 112.215 100.456C108.552 103.405 105.093 106.557 100.922 108.489C96.7507 110.421 91.4604 110.828 87.5945 108.286C87.5945 106.049 88.5101 105.845 88.4084 103.608C88.4084 101.88 87.4928 99.1347 85.3563 100.558C84.6442 101.067 83.3216 106.76 83.7285 107.269C82.406 105.439 81.0834 103.507 79.7608 101.677C79.2522 100.965 78.6417 100.151 77.7261 100.05C76.4036 99.9481 75.4879 101.677 75.9966 102.998C76.607 104.625 80.066 108.184 81.6938 108.896C79.6591 107.879 77.5226 106.862 75.4879 105.845C74.674 105.439 73.6567 105.032 72.8428 105.54C71.8254 106.252 72.3341 107.879 73.148 108.896C74.5723 110.624 76.607 111.743 78.8452 111.946C77.1157 111.743 75.3862 111.539 73.6567 111.438C73.3515 111.438 72.9445 111.336 72.6393 111.438C71.622 111.641 71.1133 112.963 71.5202 113.979C71.9272 114.895 72.9445 115.505 74.0636 115.606C75.081 115.708 76.0984 115.505 77.1157 115.2C76.0984 114.996 74.9793 114.895 74.0636 115.301C73.148 115.708 72.5376 117.03 73.2497 117.843C75.9966 121.199 81.4903 117.03 84.4407 116.826C84.3389 117.131 84.5424 117.131 84.6441 117.131Z" fill="#7F2A0D"/>
<path d="M136.529 83.5782C133.274 85.205 129.103 84.595 126.458 82.1547C128.391 79.7145 130.324 77.1726 132.257 74.7323C139.785 65.073 145.38 79.2061 136.529 83.5782Z" fill="#330D09"/>
<path d="M90.5448 32.3332C90.2396 31.4181 89.8327 30.4013 89.2223 29.5879C87.391 27.2493 83.6268 27.046 81.4903 28.9778C79.3539 31.0114 79.4556 34.7734 81.6938 36.7053C79.7608 36.6036 78.1331 38.2304 77.6244 40.1623C77.1157 41.9924 77.5227 44.026 78.1331 45.8561C78.8452 47.788 79.7608 49.7199 81.3886 50.94C90.1379 57.6506 91.8674 36.8069 90.5448 32.3332Z" fill="#330D09"/>
<path d="M85.2546 55.4137C88.7136 44.9411 82.406 35.9935 93.4952 28.8762C102.346 23.1823 113.639 21.5555 123.609 25.1141C149.246 34.4684 151.892 67.2082 130.934 82.8664C121.778 89.7804 110.383 90.0855 99.4976 87.3402C93.8004 85.9167 88.4084 82.9681 84.6442 78.4943C82.1008 75.3424 80.3713 71.377 80.1678 67.2082C79.9643 61.8194 83.6268 60.1926 85.2546 55.4137Z" fill="#7F2A0D"/>
<path d="M136.224 63.1412C138.768 60.5993 143.244 60.4976 145.889 62.9378C147.822 64.6663 148.534 67.5133 147.822 69.9535C146.601 73.9189 141.209 75.8507 137.75 73.6139C134.291 71.377 133.783 65.6831 136.835 62.9378" fill="#7F2A0D"/>
<path d="M133.681 59.5825C135.003 56.3288 136.326 52.0584 133.579 49.9232C131.646 52.3635 128.289 53.5836 125.237 52.9735C122.185 52.3635 119.54 49.9232 118.726 46.8729C116.691 49.5165 113.13 50.8383 109.875 50.1266C106.619 49.4148 103.974 46.5679 103.364 43.3142C100.006 45.6528 95.3264 45.6528 91.9691 43.4159C88.6118 41.179 86.8823 36.7053 87.8997 32.7399C81.3886 30.808 77.3192 23.0806 79.4556 16.675C81.5921 10.2694 89.7309 6.71068 95.9368 9.35427C97.5646 4.27044 102.55 0.406727 107.942 2.10591e-05C113.334 -0.305009 118.726 2.84697 121.066 7.62576C125.745 3.25367 133.477 2.74529 138.666 6.50732C140.497 7.82912 149.653 21.7588 144.668 23.1823C150.06 21.6571 156.266 24.199 159.013 29.0795C161.76 33.96 160.641 40.6707 156.47 44.4327C166.236 49.4148 161.556 65.5814 150.772 64.8697C151.281 67.1066 149.246 69.5468 147.008 69.4451C148.026 69.4451 147.11 64.9714 146.601 64.463C145.584 63.5479 142.023 63.3445 140.904 63.7512C139.683 64.158 138.971 65.2764 138.259 66.3948C133.477 74.0206 131.85 63.8529 133.681 59.5825Z" fill="#330D09"/>
<path d="M95.3264 68.8351C95.2247 70.6653 96.3438 72.4954 98.0733 73.1055C98.8872 73.4105 99.9045 73.3089 100.82 73.0038C101.837 72.6988 102.448 72.0887 103.262 71.377C103.77 70.8686 104.584 71.4787 104.381 72.0887C103.974 73.3089 102.753 74.3256 101.634 74.834C100.311 75.4441 98.7854 75.5457 97.4629 75.139C94.716 74.3256 92.8847 71.4787 93.0882 68.6317C93.0882 67.2083 95.4281 67.4116 95.3264 68.8351Z" fill="#230000"/>
<path d="M112.418 53.8886C113.334 53.8886 114.351 54.092 115.165 54.4987C116.996 55.2104 118.624 56.6339 118.929 58.6674C119.031 59.3792 118.115 59.8875 117.708 59.2775C117.301 58.6674 116.691 58.159 116.182 57.6506C115.775 57.2439 115.063 56.8372 114.453 56.6339C114.148 56.5322 113.639 56.3289 113.435 56.3289C113.537 56.3289 113.232 56.3289 113.232 56.3289C113.13 56.3289 113.028 56.3289 112.927 56.3289C112.723 56.3289 112.52 56.3289 112.316 56.3289C112.011 56.3289 111.808 56.3289 111.401 56.4305C110.892 56.5322 110.383 56.7356 109.875 56.5322C109.264 56.3288 109.061 55.6171 109.366 55.0071C109.976 53.9903 111.604 53.8886 112.418 53.8886Z" fill="#330D09"/>
<path d="M90.6466 49.3132C91.1553 48.6014 92.0709 48.2964 92.9865 48.1947C93.8004 48.093 94.6143 48.093 95.4282 48.2964C96.9542 48.6014 98.3785 49.6182 98.9889 51.0417C99.2941 51.7534 98.3785 52.4651 97.7681 51.8551C97.3611 51.4484 97.0559 51.1433 96.4455 50.7366C96.3438 50.7366 96.3438 50.635 96.242 50.635H96.1403C96.0386 50.5333 95.8351 50.5333 95.7334 50.4316C95.6316 50.3299 95.4282 50.3299 95.3264 50.3299C95.2247 50.3299 95.2247 50.3299 95.1229 50.2282C95.1229 50.2282 95.123 50.2282 95.0212 50.2282C94.716 50.1266 94.4108 50.1266 94.1056 50.1266C94.0039 50.1266 94.0039 50.1266 93.9021 50.1266C93.9021 50.1266 93.8004 50.1266 93.6986 50.1266C93.5969 50.1266 93.4952 50.1266 93.2917 50.1266C93.19 50.1266 92.9865 50.2282 92.8848 50.2282C92.783 50.2282 92.783 50.2282 92.6813 50.2282H92.5796C92.2743 50.3299 91.8674 50.5333 91.5622 50.635C90.85 50.94 90.1379 50.0249 90.6466 49.3132Z" fill="#330D09"/>
<path d="M115.368 69.7502C116.182 69.3434 116.996 69.4451 117.81 69.7502C118.319 69.9535 118.827 70.1569 119.336 70.3602L120.15 70.6652C120.557 70.8686 121.066 70.9703 121.371 71.2753C121.879 71.5803 122.388 72.1904 122.693 72.8004C122.999 73.2072 123.202 73.8172 122.897 74.3256C122.693 74.834 122.286 75.2407 121.778 75.3424C121.167 75.6474 120.455 75.7491 119.845 75.7491C119.438 75.7491 118.929 75.5457 118.522 75.444L117.708 75.2407C117.2 75.139 116.691 74.9357 116.081 74.834C115.267 74.6306 114.554 74.1222 114.148 73.4105C113.842 72.8004 113.741 71.987 113.944 71.377C114.249 70.6652 114.758 70.0552 115.368 69.7502Z" fill="#C64C30"/>
<path d="M82.3042 56.8372C83.1181 57.1423 84.0337 57.4473 84.8476 57.7523C85.1528 57.854 85.458 58.0573 85.7633 58.2607C85.9667 58.3624 86.1702 58.4641 86.2719 58.5657C86.4754 58.7691 86.7806 58.9724 86.9841 59.1758C87.1876 59.2775 87.2893 59.4808 87.391 59.5825C87.798 59.8875 88.0014 60.3959 87.798 60.8026C87.5945 61.311 87.1875 61.616 86.6789 61.616C86.2719 61.7177 85.865 61.8194 85.458 61.8194C85.1528 61.8194 84.9494 61.8194 84.6442 61.7177C84.3389 61.616 83.932 61.616 83.6268 61.5144C82.8129 61.311 81.8973 61.006 81.0834 60.7009C80.066 60.3959 79.3539 59.0741 79.7608 58.0573C80.0661 57.0406 81.1851 56.4305 82.3042 56.8372Z" fill="#C64C30"/>
<path d="M130.527 19.6236C134.596 18.0985 139.378 18.6069 142.43 21.8605C145.686 25.2158 145.38 30.808 141.209 33.35C140.701 33.655 140.192 32.8416 140.599 32.5366C143.244 30.6047 143.549 26.8427 141.82 24.1991C139.988 21.4538 136.529 20.437 133.376 20.9454C130.324 21.4538 126.966 23.284 125.949 26.3343C125.033 28.9779 126.152 32.4349 129.408 32.5366C130.73 32.5366 131.951 31.9265 132.257 30.7064C132.562 29.2829 131.85 28.4695 130.934 27.5544C130.324 26.9443 130.934 25.7242 131.748 25.8259C133.681 26.1309 134.596 28.1645 134.596 29.893C134.596 31.7231 133.681 33.4516 132.053 34.2651C130.324 35.1801 128.289 34.9768 126.661 34.0617C124.932 33.0449 123.914 31.2148 123.711 29.2829C123.406 24.6058 126.661 21.0471 130.527 19.6236Z" fill="#602200"/>
<path d="M107.84 8.13412C109.061 5.59221 112.621 4.57544 114.758 6.71065C115.775 7.72742 115.979 9.25256 115.47 10.5744C115.063 11.6928 113.435 13.523 112.113 12.5062C111.706 12.2012 111.604 11.7945 111.909 11.2861C112.316 10.676 113.028 10.5744 113.435 9.86262C113.741 9.25256 113.639 8.43915 113.13 8.03245C111.604 6.60897 109.366 8.03245 108.959 9.86262C108.45 12.2012 110.18 14.2347 112.113 15.3532C113.842 16.3699 115.979 16.5733 117.912 16.1666C120.15 15.7599 122.286 14.5397 123.609 12.7096C124.016 12.2012 124.728 12.7096 124.423 13.218C121.473 17.7934 114.656 19.1152 110.282 15.7599C107.84 14.0314 106.517 10.9811 107.84 8.13412Z" fill="#602200"/>
<path d="M99.2941 120.182C99.8028 121.3 100.006 122.52 100.515 123.639C100.922 124.757 101.431 125.876 102.041 126.994C103.16 129.129 104.584 131.163 106.314 132.993C109.875 136.958 114.554 139.907 119.641 141.534C122.693 142.449 125.847 142.957 129.001 142.957C129.408 142.957 129.408 143.567 129.001 143.567C117.81 144.076 107.128 137.873 101.634 128.316C100.922 126.994 100.21 125.672 99.7011 124.351C99.1924 123.029 98.582 121.605 98.4802 120.283C98.3785 119.877 99.0906 119.775 99.2941 120.182Z" fill="#BCBCA1"/>
<path d="M92.6813 123.537C92.6813 124.045 92.783 124.554 92.783 124.961C92.783 125.469 92.783 126.079 92.783 126.587C92.783 127.706 92.8848 128.824 93.0882 129.841C93.3935 131.976 94.0039 134.111 94.716 136.145C96.2421 140.212 98.582 143.872 101.532 147.024C103.262 148.855 105.093 150.38 107.128 151.803C107.433 152.007 107.128 152.515 106.721 152.312C98.9889 147.939 93.6987 139.399 92.1726 130.756C91.9691 129.536 91.8674 128.316 91.7657 127.197C91.7657 126.587 91.6639 125.977 91.6639 125.367C91.6639 124.655 91.7657 124.147 91.9692 123.435C92.2744 123.334 92.6813 123.334 92.6813 123.537Z" fill="#BCBCA1"/>
<path d="M148.534 91.4073C149.552 92.119 150.569 92.7291 151.688 93.1358C152.909 93.4408 154.13 93.5425 155.351 93.2374C157.589 92.7291 159.42 91.1022 160.437 89.0687C160.641 88.5603 161.455 88.5603 161.556 89.1704C162.269 92.3224 165.524 94.6609 168.78 94.3559C172.137 94.0509 174.782 90.8989 174.884 87.5436C174.884 87.1368 175.596 87.1368 175.596 87.5436C175.698 90.4922 173.866 93.2374 171.221 94.5592C168.474 95.881 165.321 95.3727 162.981 93.4408C162.065 92.6274 161.353 91.7123 160.844 90.6955C159.725 92.5257 157.792 93.9492 155.656 94.4576C153.011 95.0676 149.552 94.4576 147.72 92.2207C147.415 91.7123 148.026 91.0006 148.534 91.4073Z" fill="#BCBCA1"/>
<path d="M96.7507 57.4473C96.242 56.5322 95.3264 55.9221 94.3091 55.9221C93.2917 55.8205 92.3761 56.2272 91.6639 56.9389C91.3587 57.2439 90.9518 57.6506 90.7483 58.0573C90.5448 58.4641 90.2396 58.9724 90.3414 59.4808C90.3414 59.7859 90.7483 60.0909 91.0535 59.8875C91.3587 59.6842 91.5622 59.2775 91.8674 58.9724C92.0709 58.6674 92.2744 58.3624 92.5796 58.159C93.0882 57.6506 93.5969 57.4473 94.2073 57.4473C94.5125 57.4473 94.716 57.549 94.9195 57.6506C95.2247 57.854 95.3264 57.9557 95.5299 58.2607C95.5299 58.3624 95.6316 58.4641 95.6316 58.6674C95.6316 58.8708 95.7334 58.9724 95.7334 59.0741C95.7334 59.2775 95.7334 59.4808 95.7334 59.6842C95.7334 59.7859 95.7334 59.8875 95.7334 60.0909C95.7334 60.0909 95.7334 60.1926 95.7334 60.2942C95.6316 60.8026 95.9368 61.311 96.4455 61.4127C96.9542 61.5144 97.4629 61.1076 97.4629 60.4976C97.3611 59.3791 97.3611 58.3624 96.7507 57.4473Z" fill="#1E0800"/>
<path d="M113.334 63.1412C112.825 62.2261 111.909 61.616 110.892 61.616C109.875 61.5144 108.959 61.9211 108.247 62.6328C107.942 62.9378 107.535 63.3446 107.331 63.7513C107.128 64.158 106.823 64.6663 106.924 65.1747C106.924 65.4798 107.331 65.7848 107.636 65.5814C107.942 65.3781 108.145 64.9714 108.45 64.6663C108.654 64.3613 108.857 64.0563 109.163 63.8529C109.671 63.3446 110.18 63.1412 110.79 63.1412C111.095 63.1412 111.299 63.2429 111.502 63.3446C111.808 63.5479 111.909 63.6496 112.113 63.9546C112.113 64.0563 112.215 64.158 112.215 64.3613C112.215 64.5647 112.316 64.6664 112.316 64.768C112.316 64.9714 112.316 65.1747 112.316 65.3781C112.316 65.4798 112.316 65.5814 112.316 65.7848C112.316 65.7848 112.316 65.8865 112.316 65.9881C112.215 66.4965 112.52 67.0049 113.028 67.1066C113.537 67.2083 114.046 66.8016 114.046 66.1915C113.842 65.0731 113.842 64.0563 113.334 63.1412Z" fill="#1E0800"/>
<path d="M58.3964 100.456C57.2773 101.982 56.2599 103.405 54.7339 104.524C53.2078 105.642 51.3766 106.354 49.5453 106.557C45.6794 107.065 41.6099 105.235 39.27 102.083C41.6099 101.778 43.6447 100.558 43.8481 97.9146C44.0516 96.0844 43.0342 94.0509 41.1013 93.6441C38.7613 93.2374 36.6249 95.1693 36.1162 97.3045C35.9127 98.5246 36.0145 99.6431 36.4214 100.762C35.5058 100.558 34.5902 100.151 33.7763 99.6431C30.1138 97.4062 28.5878 93.3391 28.6895 89.2721C28.6895 88.8654 28.0791 88.7637 27.9774 89.1704C26.553 93.6441 29.4017 98.728 33.3693 100.965C34.3867 101.575 35.7093 101.982 37.0318 102.083C38.7613 105.134 42.4238 107.472 45.4759 108.184C48.3245 108.794 51.2748 108.489 53.92 107.167C56.3616 105.947 58.905 103.812 59.8207 101.27C60.1259 100.558 58.905 99.8464 58.3964 100.456ZM38.6596 96.1861C40.0839 94.6609 42.4238 95.1693 42.6273 97.4062C42.729 99.4397 40.9995 100.762 39.1683 100.965C38.9648 100.965 38.8631 100.965 38.6596 100.965C37.744 99.4397 37.4388 97.5079 38.6596 96.1861Z" fill="#BCBCA1"/>
<path d="M46.0873 76.3591C46.0873 78.0876 32.0478 81.9513 30.2165 82.6631C24.7228 84.6966 19.2291 86.6285 13.6336 88.4586C13.2267 88.5603 12.718 88.7637 12.2093 88.662C11.5989 88.4586 11.2937 87.9503 10.9885 87.4419C7.02077 80.3245 3.76523 73.1055 0.306213 65.7848C12.2093 59.2775 24.1124 52.8718 36.1172 46.3645C40.3901 55.9221 43.7474 65.9881 46.0873 76.3591Z" fill="#D5D5B7"/>
<path d="M46.0863 76.6642C44.3568 74.1223 41.203 72.2921 38.7613 70.5636C36.0145 68.6317 33.0641 66.8015 30.1138 65.1747C29.1982 64.6663 35.3023 49.3132 34.5902 47.2796C29.9103 47.9914 28.9947 61.5144 27.9773 65.2764C27.8756 65.3781 27.8756 65.5814 27.8756 65.6831C27.2652 67.8183 26.6548 69.9535 26.1461 71.987C17.8038 69.8518 9.46143 67.3099 1.01736 65.9881C0.101736 65.8865 -0.305207 67.1066 0.610415 67.4116C5.59547 69.1401 10.6823 70.4619 15.8708 71.682C14.8534 74.1223 14.4465 77.1726 13.8361 79.6128C13.1239 82.5614 11.6996 86.0184 11.9031 89.0687C11.9031 89.5771 12.5135 89.6788 12.8187 89.2721C14.5482 86.7302 14.9552 83.0698 15.769 80.1212C16.4812 77.5793 17.6003 74.7323 17.9055 72.0887C20.8558 72.8005 23.8062 73.5122 26.6548 74.2239C27.1635 74.3256 27.7739 74.0206 27.8756 73.5122C28.486 71.4787 28.9947 69.3435 29.6051 67.3099C32.2502 68.9367 34.7936 70.4619 37.337 72.1904C39.9822 73.9189 42.5256 76.4608 45.4759 77.5793C45.8828 77.7826 46.3915 77.0709 46.0863 76.6642Z" fill="#BCBCA1"/>
<path d="M30.9277 66.1915C31.0294 66.9032 30.419 76.8675 29.0964 76.5625C26.0444 75.9524 22.4836 75.5457 19.635 74.5289C18.2107 74.0206 16.8882 73.0038 16.2777 71.682C15.5656 70.1569 15.8708 68.3267 16.8882 67.1066C19.4315 64.1579 22.6871 66.2931 24.3149 68.9367C24.2131 67.3099 24.2131 65.6831 24.8235 64.2596C25.5357 62.8361 27.1635 61.7177 28.6895 62.3278C30.2155 62.7345 30.826 64.5646 30.9277 66.1915Z" fill="#3974B8"/>
</g>
<defs>
<clipPath id="clip0">
<rect width="211" height="188" fill="white"/>
</clipPath>
</defs>
</svg>
