<svg width="167" height="190" viewBox="0 0 167 190" fill="none" xmlns="http://www.w3.org/2000/svg">
<g clip-path="url(#clip0)">
<path d="M109.2 101.1C111 104.1 113 107 115.2 109.6C116.9 111.6 119.2 113.1 121.8 113.5C124.2 113.8 126.6 113.1 129 112.9C133.4 112.5 137.8 115.5 136.3 120.3C135.1 123.9 129.3 126.9 125.7 126.9C118.9 126.9 113.7 119.7 107 118.3C101.8 117.2 96.5 117 92.1 114C87.5 110.8 83.1 106.9 79.5 102.6C75.3 98.1 71.4 91.8 73.5 86C75.3 80.9 81.5 78.2 86.8 79C92.2 79.8 96.8 83.4 100.3 87.6C103.6 91.7 106.3 96.5 109.2 101.1Z" fill="#E07567"/>
<path d="M129 46.4C132.6 43.8 137.8 41.3 141 44.4C143.4 46.7 142.8 50.8 140.9 53.4C139 56 136 57.7 133.4 59.7C130.8 61.7 128.3 64.3 128 67.6C129.8 64.2 134.1 62.4 137.7 63.5C141.3 64.6 144 68.4 143.6 72.2C143.2 76.8 139.1 80.2 135 82.3C130.9 84.4 126.4 86 123.2 89.3C125.4 87.5 129.1 88.9 130.3 91.6C131.4 94.2 130.4 97.4 128.5 99.6C126.6 101.8 124 103.1 121.5 104.5C115.9 107.4 110.2 110.2 104 111.1C97.8 112 90.9 110.6 86.6 106.1C76.8 95.7 89.7 84.4 96.3 76.8C106.1 65.4 117 55.2 129 46.4Z" fill="#BDBDA2"/>
<path d="M58.5 65.5C54.4 59.2 48.7 54.3 43.1 49.4C32.8 40.5 22.5 31.7 12.3 22.8C10.1 20.9 7.29999 18.8 4.39999 19.5C-0.100008 20.5 -0.600008 26.9 0.599992 31.4C3.59999 42.2 10.6 51.8 19.9 57.9C15.2 54.4 7.39999 58 6.59999 63.7C5.99999 68.5 9.39999 73 13.7 75.2C18 77.4 22.9 77.7 27.7 78C23.3 78 18 78.6 16.1 82.6C14.1 86.7 17.5 91.8 21.8 93.3C26.1 94.8 30.8 93.7 35.3 92.7C32.6 94.7 33.1 99.4 35.7 101.6C38.3 103.8 42.1 103.9 45.4 103.1C62.5 99.1 67.1 78.9 58.5 65.5Z" fill="#D6D6B8"/>
<path d="M43.1 94.7C35 105.1 29.7 117.6 31.9 129.7C33.7 139.9 42.3 148.2 52.3 150.8C62.3 153.4 73.3 150.9 81.9 145.1C95.1 136.3 99.9 125.7 101.3 110.1C102 102.2 101.2 94 97.5 86.9C91.2 74.6 77.2 68.4 64.8 75.6C57.2 80 49.3 86.7 43.1 94.7Z" fill="#F2A685"/>
<path d="M90.4 93C93.3 92.2 95.6 89.1 94.7 86.2C92.9 81 78.4 73.5 74.6 79.7C70.3 86.9 84.7 94.5 90.4 93Z" fill="#E07567"/>
<path d="M68.1 117C70.2 117.6 73 117.6 74 115.7C75 113.6 73.1 111.4 71.3 109.9C68.3 107.3 65.3 104.7 62.2 102.1C56.3 97 52.5 99.2 55.9 106.5C58.3 111.4 62.8 115.4 68.1 117Z" fill="#E07567"/>
<path d="M43.6 158.2C36.6 164.1 28.3 164.6 19.7 163C16.6 162.4 13 162.2 10.7 164.3C9.69999 165.2 8.99999 166.6 7.79999 167.3C6.29999 168.1 4.39999 167.8 3.09999 166.6C1.89999 165.5 1.29999 163.7 1.29999 162C1.39999 157.2 5.99999 153.7 10.5 152C15 150.3 20 149.6 23.9 146.8C28 143.9 28 140.7 29.6 136.6C31 132.9 34.6 129.7 38.2 128.1C42.2 126.3 47.2 125.3 50.6 128C53.4 130.2 54.1 134.3 53.9 137.9C53.2 145.8 49.5 153.2 43.6 158.2Z" fill="#E07567"/>
<path d="M94.4 136.6C87.3 149.4 73.5 155.9 58.1 154.7C50.7 154.1 43.2 151.9 37.2 147.6C31.2 143.2 26.6 136.5 25.9 129.1C25.4 123.5 27.1 118 29.7 113.2C30.9 110.9 32.4 108.4 34.2 106.5C35.4 105.2 37.8 104.2 38.1 102.3C36.4 111.6 41.9 119.9 51.1 121.5C60.2 123 70 119.8 77 113.9C87.1 105.4 92.3 92.5 95.4 79.8C94.9 81.8 98.6 88.5 99.1 90.9C100.2 95.5 100.8 100.1 101 104.8C101.3 113.8 99.9 122.8 96.9 131.3C96.2 133 95.4 134.8 94.4 136.6Z" fill="#D6D6B8"/>
<path d="M77.7 149C80.1 157.8 77 165.5 71.9 172.7C70.1 175.3 68.3 178.4 69.3 181.4C69.7 182.7 70.6 183.9 70.8 185.3C70.9 187 69.8 188.6 68.2 189.3C66.6 189.9 64.8 189.7 63.3 189C59 186.8 57.8 181.2 58.1 176.5C58.5 171.7 59.9 166.9 59.1 162.2C58.2 157.2 55.3 155.9 52.3 152.7C49.6 149.9 48.2 145.3 48.3 141.3C48.4 137 49.6 132 53.4 130C56.6 128.4 60.6 129.5 63.8 131.3C70.6 134.9 75.7 141.5 77.7 149Z" fill="#F2A685"/>
<path d="M77.8 108.8C86.4 104.6 95 100.5 103.4 95.8C111.8 91.1 119.8 86 127.7 80.6C128.6 80 129.3 81.4 128.5 82C120.6 87.6 112.2 92.7 103.7 97.3C95.7 101.7 87.5 105.8 79 109.1C80.4 111 81.3 113.3 82.3 115.5C83.4 117.8 84.5 120.2 85.7 122.5C88.1 127.4 90.6 132.3 93.3 137.1C95.9 141.8 98.5 146.4 101.3 150.9C102.7 153.1 104 155.3 105.4 157.5C106.8 159.7 108.6 161.8 109.5 164.2C109.7 164.7 109 165 108.6 164.7C106.8 163 105.6 160.6 104.3 158.6C102.9 156.4 101.5 154.2 100.2 152C97.3 147.3 94.6 142.6 92 137.8C89.4 133.1 87 128.4 84.6 123.6C83.5 121.3 82.4 118.9 81.3 116.6C80.2 114.3 78.9 111.9 78.5 109.4C78.4 109.4 78.3 109.5 78.2 109.5C77.6 109.7 77.4 109 77.8 108.8Z" fill="#D6D6B8"/>
<path d="M138.6 124.8C133.2 123.4 127.8 122 122.4 120.6L94.7 113.7C89.5 112.4 83.8 111.5 78.9 109.3C78.3 109.1 78.6 108.1 79.2 108.1C84.4 108.6 89.7 110.5 94.7 111.8L122.9 118.8C128.2 120.2 133.4 121.5 138.7 122.9C141.4 123.6 144.1 124.3 146.8 125C149.3 125.7 152.2 126.1 154.5 127.4C155 127.7 154.8 128.4 154.2 128.4C151.7 128.4 149.2 127.5 146.8 126.9C144 126.2 141.3 125.5 138.6 124.8Z" fill="#B06F4C"/>
<path d="M148.1 136.4C150.8 137.3 154.1 136.8 156.8 136.1C157.9 135.8 166.3 132 166.7 132.5C163.7 128.9 153.4 113.2 147.2 117.2C145.3 118.4 145.5 121.3 146.6 123.2C147.8 125.1 149.6 126.4 150.9 128.2C149 128 147.1 127.8 145.4 128.5C141.2 130.4 143.4 133.9 146.4 135.6C147.1 136 147.6 136.2 148.1 136.4Z" fill="#F77B59"/>
<path d="M118.6 142.2C127.4 132.8 131.8 118.7 131 105.9C130.9 104.8 130.8 103.7 130.6 102.6C129 94.2 126.4 85.4 130.7 77.3C131.5 75.9 132.4 74.5 133.8 73.6C137.6 71.2 143.1 73.5 145.6 76.8C148.3 80.4 146.9 88.1 141.1 87C138.5 86.5 136.8 83.2 138.2 80.9C138.6 80.3 139.2 79.7 139.1 79C138.9 77.9 137.3 77.9 136.3 78.4C134.2 79.6 133 81.9 132.7 84.3C132.2 89.7 136.1 94.1 137.7 98.9C143.7 116.9 137.9 137.3 122.4 148.8C118.3 151.9 112.6 153.2 109.9 157.9C108.7 160 108.4 162.6 109.4 164.8C109.9 165.8 111.2 166.7 112 165.9C112.5 165.4 112.4 164.5 112.4 163.8C112.5 161.2 115.8 159.4 118.2 160.5C123.6 162.9 120.3 170 116 171.4C112.1 172.8 106.2 171.5 104.5 167.3C103.9 165.8 103.9 164.1 104.1 162.5C105.2 153.4 112.4 148.1 118.2 142C118.4 142.4 118.5 142.3 118.6 142.2Z" fill="#BA895E"/>
<path d="M71.2 112.3C61.2 110.9 50.2 108.4 42.2 101.8C36.2 96.8 36.5 86 41.3 80.2C44.8 75.8 50.8 73.7 56.3 74.4C61.4 75 65.6 78.5 60.9 83.3C57.7 86.5 55.5 87.4 57.6 91.9C59 95 60.9 98.9 63.6 101.1C69.6 106 77.3 101 84 105.7C85.7 106.9 87.3 108.6 87.4 110.7C87.6 113.6 84.8 115.9 81.9 116.4C79.8 116.7 77 116.3 75.1 115.4C73.9 114.8 72 112.4 71.2 112.3Z" fill="#F2A685"/>
<path d="M61 73C63.5 75.5 67.6 76.3 70.8 74.8C69.8 71.9 68.7 69 67.7 66.1C63.7 54.7 54.2 66.1 61 73Z" fill="#3974B9"/>
<path d="M119.9 39.7C120.5 38.9 121.1 38.1 121.9 37.6C124.3 36 127.9 37 129.3 39.5C130.6 42 129.4 45.6 126.7 46.7C128.5 47.2 129.6 49.3 129.4 51.2C129.3 53.1 128.3 54.8 127.1 56.3C125.9 57.9 124.4 59.4 122.4 60C112.4 63.4 117.3 43.5 119.9 39.7Z" fill="#18599B"/>
<path d="M117.6 62.9C117.7 52.1 126.4 45.8 118.3 35.6C111.9 27.5 101.9 22.4 91.5 22.6C64.7 23.2 51.9 52.8 66.4 74.1C72.8 83.4 83.2 87.3 94.2 88.2C99.9 88.7 105.9 87.7 110.8 84.6C114.2 82.5 117 79.3 118.5 75.5C120.5 70.6 117.6 67.9 117.6 62.9Z" fill="#F2A685"/>
<path d="M67.7 54.1C66.2 51 62 49.4 58.8 50.9C56.5 51.9 54.8 54.3 54.8 56.9C54.7 61 59.1 64.5 63 63.5C66.9 62.5 69.2 57.4 67.2 53.9" fill="#F2A685"/>
<path d="M71.2 51.5C71 48.1 71.1 43.7 74.3 42.5C75.3 45.4 78.1 47.6 81.1 48C84.1 48.4 87.4 46.9 89.1 44.4C90.1 47.5 93.1 49.9 96.3 50.2C99.5 50.5 102.9 48.8 104.5 45.9C106.9 49.1 111.3 50.7 115.1 49.6C118.9 48.5 121.9 44.9 122.3 41C128.9 41.4 135.2 35.4 135.1 28.8C135 22.2 128.7 16.3 122.1 16.8C122.2 11.5 118.8 6.40002 113.9 4.30002C109 2.30002 103 3.50002 99.3 7.30002C96.4 1.80002 89.2 -1.19998 83.2 0.700021C81.1 1.40002 68.2 11.4 72.3 14.3C67.8 11.2 61.1 11.6 57.1 15.3C53 19 51.9 25.6 54.6 30.4C44 31.7 43.2 48.3 53.5 51C52.3 52.9 53.4 55.8 55.6 56.5C54.7 56.2 56.9 52.3 57.6 52C58.8 51.5 62.2 52.4 63.1 53.2C64.1 54 64.4 55.3 64.7 56.5C66.8 65.1 71.5 56.1 71.2 51.5Z" fill="#3974B9"/>
<path d="M111.4 62.2C111.4 62 111.3 61.8 111.2 61.6C111.1 61.3 110.9 61 110.7 60.8C110.5 60.7 110.4 60.5 110.2 60.4L109.6 60.2C109.3 60.1 108.9 60.1 108.6 60.2C108.3 60.2 108 60.3 107.7 60.5C107.7 60.5 107.6 60.5 107.6 60.6C107.6 60.6 107.5 60.6 107.5 60.7C107.1 60.9 106.8 61.2 106.6 61.6C106.4 62 106.3 62.4 106.3 62.9C106.3 63.1 106.4 63.4 106.4 63.6C106.5 64 106.7 64.4 107.1 64.7C107.3 64.9 107.6 65.1 107.9 65.2C108.2 65.4 108.5 65.4 108.9 65.4C109.4 65.4 109.8 65.3 110.2 65.1C110.6 64.9 110.9 64.6 111.1 64.2C111.1 64.2 111.1 64.1 111.2 64.1C111.2 64.1 111.2 64 111.3 64L111.5 63.4C111.5 62.8 111.5 62.5 111.4 62.2Z" fill="#594A42"/>
<path d="M93.4 74.8C93.5 74.6 93.6 74.5 93.7 74.3L93.8 74.2C93.8 74.2 93.8 74.2 93.9 74.2C94 74.1 94.1 74.1 94.1 74C94 74 94 74.1 93.9 74.1C94 74 94.1 73.9 94.2 73.9C94.3 73.8 94.4 73.8 94.5 73.8C94.4 73.4 94.3 73 94.3 72.6C94.3 71.9 95.2 71.7 95.6 72.3C96.1 73.1 96.5 74 97.3 74.6C98.1 75.1 98.9 75.5 99.8 75.5C101.6 75.5 103.3 74.1 103.7 72.4C104.1 71 106.3 71.6 105.9 73C105.2 75.7 102.6 77.8 99.8 77.7C99.3 77.7 98.8 77.6 98.3 77.4C98.2 77.5 98.1 77.6 98 77.7C97.8 77.9 97.5 78 97.2 78.2C96.5 78.5 95.8 78.6 95 78.5C94.3 78.3 93.7 77.9 93.3 77.3C93.1 76.4 93.1 75.5 93.4 74.8Z" fill="#BD574A"/>
<path d="M92.7 52.9C91.8 52.6 90.9 52.5 90 52.6C88.1 52.7 86.1 53.5 85.2 55.3C84.9 55.9 85.5 56.7 86.2 56.3C86.8 55.9 87.5 55.6 88.2 55.2C88.7 55 89.5 54.8 90.1 54.8C90.4 54.8 90.9 54.8 91.1 54.8C91 54.8 91.3 54.8 91.3 54.8C91.4 54.8 91.5 54.8 91.6 54.9C91.8 54.9 92 55 92.1 55.1C92.4 55.2 92.6 55.3 92.9 55.5C93.3 55.7 93.7 56.1 94.2 56.1C94.9 56.1 95.2 55.5 95.1 54.9C95.1 53.8 93.6 53.2 92.7 52.9Z" fill="#3974B9"/>
<path d="M114.5 55.6C114.2 54.8 113.5 54.2 112.7 53.9C112 53.5 111.2 53.3 110.4 53.2C108.9 53.1 107.3 53.5 106.2 54.7C105.7 55.3 106.3 56.2 107 55.8C107.5 55.5 107.9 55.3 108.6 55.2C108.7 55.2 108.7 55.2 108.8 55.2H108.9C109 55.2 109.2 55.2 109.3 55.2C109.5 55.2 109.6 55.2 109.8 55.2C109.9 55.2 110 55.2 110 55.2C110 55.2 110 55.2 110.1 55.2C110.4 55.2 110.7 55.3 111 55.4C111.1 55.4 111.1 55.4 111.2 55.5C111.2 55.5 111.3 55.5 111.3 55.6C111.4 55.6 111.5 55.7 111.6 55.8C111.7 55.9 111.9 55.9 112 56L112.1 56.1L112.2 56.2C112.5 56.4 112.7 56.7 113.1 56.9C113.8 57 114.8 56.3 114.5 55.6Z" fill="#3974B9"/>
<path d="M85 66.8C84.4 66.2 83.6 66 82.7 66C82.2 66 81.6 66 81.1 66.1H80.3C79.9 66.1 79.4 66.1 79 66.2C78.4 66.4 77.8 66.7 77.3 67.2C76.9 67.5 76.6 68 76.6 68.5C76.6 69.1 76.9 69.5 77.3 69.8C77.8 70.3 78.4 70.6 79 70.8C79.4 70.9 79.9 70.9 80.3 70.9H81.1C81.6 70.9 82.2 71 82.7 71C83.5 71 84.4 70.9 85 70.2C85.5 69.7 85.8 69 85.8 68.4C85.8 68 85.5 67.3 85 66.8Z" fill="#F77B59"/>
<path d="M119.9 65.1C119 65.1 118.1 65.1 117.3 65.2C117 65.2 116.6 65.3 116.3 65.3C116.1 65.3 115.9 65.4 115.7 65.4C115.4 65.5 115.1 65.6 114.9 65.8C114.7 65.9 114.5 66 114.4 66.1C114 66.3 113.6 66.7 113.6 67.2C113.6 67.7 113.9 68.1 114.4 68.3C114.7 68.5 115.1 68.7 115.4 68.8C115.7 68.9 115.9 69 116.2 69C116.5 69.1 116.9 69.1 117.2 69.1C118.1 69.2 119 69.1 119.8 69.2C120.9 69.2 121.9 68.2 121.9 67.1C121.9 66.1 121 65.1 119.9 65.1Z" fill="#F77B59"/>
<path d="M57.6 80.7C58 80 59 80.6 58.7 81.3C57.9 83.2 57.2 85.1 57.1 87.3C57 89.3 57.3 91.4 58 93.3C59.3 97.1 62.3 100.1 66 101.7C68.1 102.6 70.3 103 72.6 103.1C73.1 103.1 73.1 103.8 72.6 103.9C68.4 104.4 64 102.5 61 99.7C57.8 96.7 56 92.4 56 88C55.9 85.5 56.3 82.8 57.6 80.7Z" fill="#E07567"/>
<path d="M88.5 63.7C88.8 63.6 89.2 63.5 89.5 63.5C89.9 63.4 90.2 63.3 90.6 63.3C90.9 63.3 91.2 63.2 91.5 63.2C91.2 63.1 90.9 62.9 90.6 62.8C90.2 62.6 89.9 62.5 89.5 62.3C89.1 62.1 88.7 62 88.4 61.8C88 61.6 87.9 61.1 88.1 60.8C88.3 60.4 88.7 60.2 89.1 60.3C89.5 60.4 89.9 60.7 90.3 60.9C90.7 61.1 91 61.2 91.4 61.4C92.1 61.7 92.9 62.1 93.5 62.6C93.8 62.8 93.9 63.1 93.8 63.4C93.7 63.6 93.6 63.7 93.4 63.8C93.4 64 93.3 64.2 93.1 64.3C92.8 64.5 92.5 64.6 92.2 64.8C91.8 65 91.4 65.1 91.1 65.2C90.8 65.3 90.4 65.4 90.1 65.5C89.7 65.6 89.4 65.7 89 65.8C88.5 65.9 87.9 65.7 87.8 65.1C87.7 64.4 88 63.8 88.5 63.7Z" fill="#594A42"/>
<path d="M97.8 14.7C98.7 17.3 100.8 19.6 103.3 20.7C105.7 21.7 108.5 21.3 110.5 19.7C112.4 18.2 113 15.7 112 13.5C111 11.4 108.7 10 106.4 11.2C105.3 11.8 104.4 13 104.8 14.3C105 14.9 105.4 15.4 105.9 15.8C106.5 16.2 107.1 16.1 107.8 16.4C108.3 16.6 108.7 17.3 108.2 17.8C106.8 19.1 104.6 17.8 103.7 16.5C102.6 15.1 102.4 13.2 103.3 11.6C105 8.50004 109.3 8.00004 112 10.2C114.6 12.3 115.4 16.2 113.8 19.1C112.2 22.1 108.4 23.7 105.1 23.2C100.9 22.6 98.1 19.1 96.9 15.2C96.6 14.3 97.6 14 97.8 14.7Z" fill="#6AA1D8"/>
<path d="M71.8 25.7C73.3 25 75.6 25.4 76.1 27.2C76.4 28.2 75.1 28.8 74.4 28.2C73.9 27.7 73.2 27.4 72.5 27.9C71.8 28.5 71.8 29.6 72.2 30.3C73.2 32.1 75.7 32.3 77.4 31.6C81.7 29.9 81.6 24.2 78.5 21.5C76.7 19.9 73.8 19.1 71.4 19.3C70.7 19.4 70.5 18.2 71.2 18C72.8 17.6 74.3 17.5 75.9 17.9C77.4 18.3 78.8 19 80 20C82.3 22 83.4 25.3 82.8 28.3C82.2 31.2 79.8 33.5 76.9 34.1C74 34.6 70.3 33.3 69.7 30.1C69.6 28.3 70.2 26.4 71.8 25.7Z" fill="#6AA1D8"/>
<path d="M79.5 139.9C80.3 139.4 81.1 139.1 81.9 138.7C82.7 138.2 83.5 137.7 84.2 137.2C85.7 136.1 87 134.7 88.2 133.2C90.5 130.2 92.1 126.8 92.6 123C92.6 122.7 93.2 122.8 93.1 123.1C92.4 129.1 89.2 134.6 84.3 138.2C83.6 138.7 82.9 139.2 82.2 139.6C81.5 140 80.7 140.5 79.9 140.7C79.4 140.8 79.1 140.2 79.5 139.9Z" fill="#BDBDA2"/>
<path d="M40.2 119C40.9 120 41.6 121 42.4 121.8C43.2 122.7 44.2 123.4 45.2 124C47.5 125.4 50.1 126.1 52.7 126.5C58.2 127.3 64 126.8 69.4 125.5C72.5 124.7 75.4 123.6 78.3 122.5C78.6 122.4 78.8 122.9 78.5 123.1C76 124.5 73.2 125.5 70.4 126.3C67.6 127.1 64.7 127.6 61.8 127.8C56.2 128.3 50 128 45 125.2C42.7 123.9 40.3 121.9 39.4 119.3C39.3 118.9 39.9 118.7 40.2 119Z" fill="#BDBDA2"/>
<path d="M25.8 56.6C26.1 56.2 26.6 56.8 26.3 57.1C24.5 59.4 24.5 63 26.5 65.2C28.4 67.2 31.6 67.7 33.9 66.4C34.5 66.1 35.2 66.6 35 67.3C34.1 70.8 36.9 74.2 40.5 74C41.5 74 41.5 75.5 40.5 75.6C38.4 75.7 36.2 74.8 34.9 73.1C33.8 71.7 33.3 70 33.4 68.3C30.6 69.1 27.4 68.3 25.6 66C23.4 63.2 23.5 59.2 25.8 56.6Z" fill="#BDBDA2"/>
</g>
<defs>
<clipPath id="clip0">
<rect width="166.8" height="189.6" fill="white"/>
</clipPath>
</defs>
</svg>
