<svg width="203" height="182" viewBox="0 0 203 182" fill="none" xmlns="http://www.w3.org/2000/svg">
<path d="M76.5998 35.4043C74.1233 31.8413 70.0317 27.9258 66.1064 29.7465C63.1698 31.0973 62.4063 35.0617 63.3852 38.1256C64.3641 41.1894 66.5861 43.6463 68.4068 46.2893C70.2274 48.9322 71.7153 52.1624 70.9028 55.2752C70.6094 53.4154 69.6799 51.7151 68.2729 50.4641C66.8659 49.213 65.0685 48.4888 63.1872 48.4149C61.3059 48.341 59.4573 48.9219 57.9565 50.0587C56.4556 51.1955 55.3956 52.8177 54.9572 54.6487C53.9196 59.034 56.6311 63.4585 59.7438 66.6887C62.8566 69.9189 66.5959 72.8164 68.4557 76.9276C66.958 74.5489 63.0622 74.7056 61.1926 76.8003C59.3229 78.8951 59.2348 82.1449 60.3409 84.7389C61.4471 87.3329 63.3754 89.4374 65.3233 91.4539C69.5716 95.8783 73.9765 100.332 79.4483 103.112C84.9201 105.892 91.7134 106.773 97.1363 103.905C109.529 97.3466 101.11 82.7812 97.3908 73.668C91.8803 60.1916 84.9083 47.3604 76.5998 35.4043Z" fill="#BDBDA2"/>
<path d="M79.6832 84.9934C74.0744 85.9723 68.7396 85.6199 63.1503 84.8368C56.9149 83.9754 55.9459 85.9135 61.1926 89.9856C69.9142 96.8376 81.7486 99.6959 92.6825 99.2847C96.6664 99.1379 101.267 98.0807 102.99 94.4883C104.507 91.3168 102.99 87.2937 100.122 85.199C97.2538 83.1042 93.5635 82.6539 90.0689 82.9867C86.5744 83.3195 83.1484 84.3669 79.6832 84.9934Z" fill="#492623"/>
<path d="M52.8037 81.4988C52.8146 81.6111 52.8342 81.7224 52.8625 81.8317C53.2149 83.5055 56.3081 85.3947 57.8644 85.6884C56.5821 85.4534 52.6961 83.3391 51.5704 84.5039C49.7203 86.4617 54.6048 88.762 55.5837 89.5451C55.0257 89.6527 51.3354 89.6038 52.8135 90.9644C53.202 91.2466 53.6749 91.3881 54.1546 91.3658C57.4729 91.6007 64.7165 93.5486 66.4393 89.5255C67.2713 87.5678 66.5371 85.9233 66.3022 84.0341C66.1211 82.1623 66.1211 80.2774 66.3022 78.4056C66.418 77.7459 66.278 77.0668 65.9107 76.5067C65.1569 75.655 63.6103 76.2522 63.1601 77.2995C62.8328 78.3971 62.8845 79.5729 63.3069 80.6374C61.868 80.3144 61.1534 78.7678 60.5269 77.4366C59.9005 76.1053 58.8433 74.637 57.3848 74.7643C53.3715 75.1265 57.9525 81.3226 59.0489 82.419C57.698 81.0681 52.1675 77.3876 52.8037 81.4988Z" fill="#6D2E17"/>
<path d="M136.007 75.332C141.733 70.8097 148.595 68.0004 155.359 65.2596L192.311 50.2732C194.993 49.1867 198.184 48.1197 200.641 49.6369C204.556 52.0156 202.971 58.0356 200.406 61.8042C194.146 70.9106 184.845 77.4873 174.173 80.3536C179.586 78.6308 185.713 84.3278 184.646 89.917C183.765 94.5373 179.135 97.6892 174.476 98.3842C169.817 99.0792 165.118 97.836 160.576 96.6124C164.658 97.9926 169.386 100.244 169.905 104.512C170.472 108.936 165.745 112.578 161.281 112.607C156.817 112.636 152.775 110.189 148.996 107.82C150.895 110.561 148.908 114.672 145.795 115.896C142.683 117.12 139.12 116.023 136.3 114.251C121.715 105.109 123.751 84.9346 136.007 75.332Z" fill="#D6D6B8"/>
<path d="M141.058 107.194C145.296 119.381 146.255 132.644 140.51 143.128C135.615 152.006 125.044 156.989 114.942 156.303C104.84 155.618 95.4722 149.784 89.2956 141.767C79.8007 129.463 78.7043 118.167 82.3261 103.279C84.1566 95.7315 87.5239 88.3705 93.0936 82.9476C102.755 73.5212 117.692 72.1801 127.001 82.7322C133.181 89.9314 137.949 98.2299 141.058 107.194Z" fill="#6D2E17"/>
<path d="M97.7432 90.7002C95.3156 89.0361 94.1214 85.4045 95.8735 83.0748C99.1332 78.8462 114.952 76.3794 116.518 83.3489C118.329 91.3462 102.579 93.9304 97.7432 90.7002Z" fill="#492623"/>
<path d="M110.86 119.997C108.716 119.929 106.112 119.019 105.838 116.904C105.564 114.79 108.041 113.185 110.145 112.333L120.991 107.938C128.058 105.08 130.927 108.329 125.464 113.948C123.574 115.903 121.303 117.449 118.79 118.489C116.278 119.53 113.579 120.043 110.86 119.997Z" fill="#492623"/>
<path d="M88.1601 141.699C81.3081 147.484 79.5755 155.403 79.6832 163.997C79.6832 167.081 79.3895 170.585 76.962 172.484C75.8852 173.326 74.4854 173.756 73.6241 174.814C73.1353 175.482 72.8629 176.284 72.8437 177.112C72.8244 177.939 73.0592 178.753 73.5164 179.444C73.992 180.119 74.6067 180.686 75.3191 181.104C76.0316 181.523 76.8254 181.784 77.6472 181.871C82.2968 182.507 86.3982 178.69 88.7572 174.628C91.1163 170.565 92.5846 165.877 95.9029 162.548C99.3779 159.054 102.442 159.543 106.67 158.633C110.449 157.85 114.129 154.923 116.244 151.712C118.573 148.159 120.394 143.5 118.348 139.77C116.635 136.667 112.818 135.375 109.284 135.033C105.497 134.687 101.679 135.099 98.0523 136.243C94.4257 137.388 91.0631 139.242 88.1601 141.699Z" fill="#492623"/>
<path d="M80.339 129.845C82.9036 143.999 93.6711 154.316 108.364 157.997C115.451 159.759 123.047 160.111 129.987 157.997C136.927 155.882 143.27 151.008 146.265 144.351C148.497 139.369 148.663 133.701 147.773 128.386C147.411 125.764 146.717 123.198 145.707 120.751C144.993 119.205 143.133 117.492 143.397 115.661C142.086 124.774 134.323 130.794 125.298 129.365C116.273 127.936 108.305 121.818 103.704 114.183C97.0384 103.161 96.2455 89.5744 97.3223 76.7514C97.1558 78.7972 91.6546 83.8481 90.3821 85.845C87.9329 89.7275 85.88 93.8464 84.2545 98.1395C81.1356 106.385 79.6109 115.148 79.7615 123.962C79.7967 125.935 79.9898 127.902 80.339 129.845Z" fill="#D6D6B8"/>
<path d="M101.081 141.444C93.0251 145.36 89.3347 152.525 87.2008 160.855C86.4569 163.85 85.2431 167.149 82.4142 168.363C81.1613 168.901 79.693 168.97 78.5967 169.772C77.9499 170.286 77.4764 170.986 77.24 171.777C77.0037 172.568 77.016 173.413 77.2752 174.197C77.5623 174.973 78.0122 175.678 78.5947 176.266C79.1772 176.853 79.8788 177.309 80.6523 177.603C84.9886 179.395 89.9221 176.752 93.2404 173.424C96.5587 170.095 99.1625 165.945 103.215 163.566C107.473 161.07 110.312 162.314 114.628 162.588C118.475 162.803 122.773 160.904 125.641 158.33C128.802 155.491 131.739 151.478 130.711 147.327C129.85 143.882 126.482 141.669 123.154 140.475C119.593 139.171 115.809 138.585 112.021 138.751C108.232 138.918 104.514 139.833 101.081 141.444Z" fill="#6D2E17"/>
<path d="M81.4354 113.713C85.6249 113.713 90.8128 116.454 95.0024 117.178C104.38 118.793 113.836 117.844 122.293 113.263C125.507 111.705 128.264 109.345 130.3 106.411C132.189 103.406 132.796 99.412 131.152 96.2601C129.076 92.2957 123.957 90.7001 119.552 91.4832C115.147 92.2663 111.33 94.9484 107.806 97.7675C104.282 100.587 100.954 103.641 96.8916 105.51C92.8293 107.38 87.7686 107.791 84.0489 105.315C84.0489 103.19 84.881 102.936 84.8614 100.822C84.8614 99.1966 83.8825 96.4754 81.9248 97.885C81.2298 98.3744 79.9671 103.807 80.339 104.394C79.0339 102.587 77.7483 100.782 76.4823 98.9813C75.9831 98.2765 75.3566 97.4934 74.5246 97.4347C73.2227 97.3368 72.4103 99.04 72.8312 100.264C73.3793 101.849 76.7466 105.256 78.2736 105.98L72.2634 103.044C71.4706 102.662 70.4819 102.28 69.7576 102.779C68.7787 103.464 69.2388 105.06 70.0121 105.99C71.4062 107.622 73.3628 108.67 75.4937 108.927L70.5211 108.388C70.1969 108.335 69.8664 108.335 69.5422 108.388C69.3141 108.478 69.1067 108.613 68.9327 108.785C68.7586 108.958 68.6216 109.164 68.53 109.391C68.4383 109.618 68.394 109.862 68.3998 110.107C68.4055 110.352 68.4612 110.593 68.5634 110.816C68.797 111.261 69.1411 111.639 69.5628 111.913C69.9844 112.188 70.4694 112.349 70.9713 112.382C71.9632 112.436 72.9569 112.316 73.9079 112.029C72.9371 111.783 71.915 111.831 70.9713 112.167C70.7432 112.263 70.5382 112.408 70.3703 112.59C70.2023 112.772 70.0752 112.988 69.9974 113.224C69.9195 113.459 69.8928 113.708 69.919 113.955C69.9452 114.201 70.0236 114.439 70.1491 114.653C72.8116 117.834 78.1072 113.831 80.9166 113.674C81.0901 113.677 81.2633 113.69 81.4354 113.713Z" fill="#6D2E17"/>
<path d="M131.289 81.401C129.713 82.152 127.95 82.418 126.223 82.1653C124.496 81.9126 122.883 81.1526 121.588 79.9816L127.197 72.8457C134.47 63.5857 139.795 77.1429 131.289 81.401Z" fill="#FFD618"/>
<path d="M87.0638 32.037C86.8206 31.0961 86.4022 30.2094 85.8305 29.4235C85.3814 28.8948 84.8322 28.4603 84.2144 28.1449C83.5967 27.8295 82.9226 27.6395 82.2311 27.5858C81.5395 27.5321 80.8442 27.6158 80.1852 27.8321C79.5261 28.0484 78.9164 28.3929 78.3911 28.846C77.9079 29.345 77.5283 29.9348 77.2744 30.5814C77.0205 31.228 76.8973 31.9185 76.9118 32.613C76.9264 33.3075 77.0785 33.9922 77.3593 34.6276C77.6401 35.2629 78.044 35.8364 78.5478 36.3147C77.6275 36.3665 76.7487 36.715 76.0429 37.3078C75.3371 37.9007 74.8423 38.7061 74.6323 39.6036C74.2566 41.4288 74.4374 43.3248 75.1511 45.0461C75.7081 46.9472 76.8027 48.6468 78.3031 49.9404C86.6723 56.4009 88.3755 36.3832 87.0638 32.037Z" fill="#FFD618"/>
<path d="M81.9542 54.2767C85.2334 44.2042 79.1644 35.6098 89.9025 28.6991C98.399 23.2371 109.284 21.6121 118.857 25.1165C143.505 34.1318 146.089 65.5923 125.954 80.7451C117.144 87.3818 106.23 87.7146 95.717 85.0619C90.1712 83.7997 85.1721 80.803 81.4452 76.5066C78.911 73.4372 77.4015 69.6514 77.1284 65.6804C76.8445 60.4631 80.4467 58.8774 81.9542 54.2767Z" fill="#6D2E17"/>
<path d="M130.985 61.7455C132.238 60.5743 133.878 59.9066 135.593 59.8704C137.307 59.8343 138.974 60.4323 140.275 61.5497C141.261 62.4218 141.959 63.5725 142.278 64.8497C142.597 66.127 142.521 67.4709 142.06 68.704C141.599 69.9372 140.775 71.0017 139.697 71.757C138.619 72.5124 137.337 72.923 136.021 72.9349C134.704 72.9467 133.415 72.5591 132.324 71.8233C131.232 71.0875 130.389 70.038 129.907 68.8133C129.424 67.5886 129.323 66.2463 129.619 64.9635C129.915 63.6807 130.593 62.5177 131.563 61.628" fill="#6D2E17"/>
<path d="M128.567 58.2901C129.85 55.1871 131.083 51.0661 128.489 48.9518C127.544 50.1339 126.291 51.0321 124.868 51.547C123.445 52.062 121.908 52.1737 120.425 51.8699C118.942 51.5661 117.573 50.8586 116.467 49.8254C115.361 48.7923 114.562 47.4737 114.159 46.0152C113.194 47.2874 111.88 48.2523 110.378 48.7929C108.875 49.3335 107.248 49.4265 105.694 49.0607C104.14 48.6949 102.725 47.886 101.621 46.7321C100.517 45.5782 99.7721 44.1289 99.4757 42.5598C97.869 43.7044 95.9504 44.3297 93.9778 44.3516C92.0052 44.3736 90.0732 43.7912 88.4414 42.6827C86.8096 41.5743 85.5562 39.9928 84.8497 38.1509C84.1432 36.3091 84.0175 34.2951 84.4894 32.3797C78.254 30.6471 74.3386 23.1196 76.4334 17.0018C78.5281 10.8839 86.3198 7.41873 92.2909 9.94419C93.0877 7.46089 94.6125 5.2744 96.6674 3.66848C98.7223 2.06256 101.212 1.11135 103.815 0.938287C106.417 0.765226 109.011 1.37831 111.261 2.69797C113.51 4.01763 115.311 5.98294 116.43 8.33886C118.728 6.28591 121.65 5.06394 124.725 4.86871C127.801 4.67348 130.853 5.51628 133.393 7.26211C135.136 8.53463 143.945 21.945 139.208 23.286C141.817 22.6063 144.577 22.7967 147.068 23.8285C149.559 24.8603 151.645 26.677 153.01 29.0026C154.263 31.3887 154.705 34.1184 154.269 36.7783C153.833 39.4382 152.542 41.8836 150.592 43.7442C159.989 48.4917 155.486 64.1045 145.149 63.3899C145.239 63.9254 145.213 64.4739 145.072 64.9983C144.931 65.5226 144.679 66.0104 144.332 66.4284C143.986 66.8464 143.553 67.1849 143.064 67.4206C142.575 67.6564 142.041 67.7841 141.498 67.7948C142.477 67.7948 141.596 63.5074 141.058 62.9886C140.079 62.1076 136.653 61.9314 135.547 62.3426C134.455 62.8921 133.572 63.782 133.031 64.8778C128.372 72.2291 126.845 62.4405 128.567 58.2901Z" fill="#FFD618"/>
<path d="M91.6644 67.2467C91.5988 68.1261 91.8224 69.0028 92.3013 69.7433C92.7803 70.4838 93.4882 71.0473 94.3172 71.3481C95.1826 71.6008 96.1046 71.5838 96.9601 71.2991C97.8347 70.9602 98.6236 70.4321 99.2702 69.7525C99.3805 69.657 99.5192 69.6003 99.6648 69.5913C99.8105 69.5823 99.9551 69.6214 100.076 69.7026C100.198 69.7838 100.289 69.9026 100.336 70.0408C100.383 70.1789 100.384 70.3287 100.337 70.4671C100.1 71.0727 99.7401 71.6226 99.2802 72.0825C98.8204 72.5424 98.2704 72.9022 97.6649 73.1394C96.3959 73.7106 94.9626 73.8011 93.6319 73.3939C92.3376 72.9571 91.2235 72.1055 90.4625 70.971C89.7015 69.8366 89.3361 68.4827 89.4229 67.1194C89.4599 66.8377 89.6021 66.5805 89.821 66.3992C90.0398 66.218 90.3191 66.1263 90.6027 66.1424C90.8864 66.1585 91.1535 66.2812 91.3504 66.4861C91.5473 66.6909 91.6595 66.9626 91.6644 67.2467Z" fill="#1F1000"/>
<path d="M108.149 52.8183C109.057 52.8306 109.955 53.0201 110.791 53.3762C111.682 53.6745 112.481 54.1967 113.112 54.8926C113.743 55.5885 114.184 56.4348 114.394 57.3504C114.492 58.0062 113.63 58.5446 113.17 57.9573C112.724 57.3872 112.229 56.8567 111.692 56.3715C111.205 55.9565 110.653 55.6257 110.057 55.3927C109.737 55.278 109.41 55.1832 109.078 55.1088H108.892H108.618C108.436 55.0989 108.253 55.0989 108.07 55.1088C107.764 55.1076 107.458 55.1438 107.16 55.2165C106.704 55.3765 106.213 55.407 105.741 55.3046C105.595 55.2547 105.463 55.1712 105.356 55.061C105.249 54.9507 105.169 54.8167 105.124 54.6699C105.078 54.5231 105.067 54.3676 105.093 54.216C105.118 54.0643 105.179 53.9208 105.271 53.7971C105.731 52.9064 107.287 52.8183 108.149 52.8183Z" fill="#FFD618"/>
<path d="M87.1617 48.4428C87.7376 47.8271 88.5235 47.4499 89.3641 47.3856C90.1468 47.2695 90.9446 47.3061 91.7134 47.4933C92.4462 47.6456 93.1344 47.9639 93.7249 48.4237C94.3155 48.8836 94.7927 49.4728 95.1198 50.146C95.1907 50.2955 95.205 50.4656 95.1603 50.6249C95.1155 50.7842 95.0145 50.9219 94.8761 51.0126C94.7377 51.1033 94.5712 51.1408 94.4073 51.1183C94.2434 51.0957 94.0931 51.0146 93.9843 50.8899C93.6199 50.4887 93.1936 50.1483 92.7216 49.8817L92.5258 49.774H92.428L92.056 49.6174L91.6351 49.4804L91.4197 49.4217H91.3414C91.0536 49.3692 90.7625 49.3365 90.4702 49.3238H90.1374H89.7948L89.3641 49.4119L89.2075 49.4608H89.0998C88.7839 49.6106 88.4566 49.735 88.121 49.8328C87.3673 49.9894 86.6429 49.0693 87.1617 48.4428Z" fill="#FFD618"/>
<path d="M110.968 68.1178C111.338 67.9512 111.741 67.865 112.147 67.865C112.554 67.865 112.956 67.9512 113.327 68.1178C113.826 68.3038 114.306 68.4996 114.815 68.7051L115.549 69.0086C115.97 69.1397 116.374 69.3204 116.753 69.547C117.283 69.9219 117.716 70.4187 118.015 70.9957C118.176 71.1981 118.283 71.4382 118.326 71.6933C118.369 71.9484 118.346 72.2102 118.26 72.4542C118.166 72.6912 118.018 72.903 117.827 73.0729C117.637 73.2428 117.41 73.3661 117.164 73.433C116.578 73.6997 115.938 73.827 115.294 73.805C114.857 73.7505 114.427 73.6488 114.012 73.5015L113.239 73.296L111.712 72.8555C111.314 72.7661 110.94 72.5933 110.615 72.3487C110.289 72.104 110.019 71.793 109.822 71.4362C109.512 70.8317 109.442 70.1323 109.627 69.4784C109.895 68.8782 110.371 68.3951 110.968 68.1178Z" fill="#9C372A"/>
<path d="M79.1546 55.6472C79.9671 55.931 80.7893 56.1953 81.5822 56.5281C81.8856 56.6554 82.1891 56.8316 82.4925 56.9882C82.6727 57.0728 82.8461 57.1709 83.0113 57.2819C83.2472 57.4718 83.4696 57.6778 83.677 57.8985C83.8168 58.0312 83.9416 58.1789 84.0489 58.339C84.2309 58.4765 84.3655 58.6673 84.4339 58.8849C84.5023 59.1024 84.5012 59.3359 84.4307 59.5528C84.347 59.7767 84.1954 59.9689 83.997 60.1023C83.7987 60.2357 83.5635 60.3037 83.3246 60.2967C82.9526 60.3935 82.5725 60.4558 82.1891 60.4827C81.9132 60.4944 81.637 60.4714 81.3669 60.4142C81.034 60.3555 80.6914 60.3065 80.388 60.2282C79.5657 60.0129 78.7435 59.7192 77.9311 59.4549C77.4261 59.2836 77.0099 58.9187 76.774 58.4405C76.5381 57.9623 76.5019 57.4099 76.6732 56.905C76.8446 56.4 77.2095 55.9839 77.6877 55.748C78.1659 55.5121 78.7182 55.4758 79.2231 55.6472H79.1546Z" fill="#9C372A"/>
<path d="M125.572 19.7915C129.488 18.333 134.088 18.8126 137.074 21.896C140.059 24.9795 139.903 30.5296 135.929 32.918C135.449 33.2019 134.95 32.4286 135.38 32.0958C136.573 31.1588 137.361 29.7998 137.581 28.2991C137.802 26.7984 137.438 25.2703 136.565 24.03C135.651 22.7775 134.397 21.8137 132.952 21.2533C131.506 20.6928 129.93 20.5591 128.411 20.8682C125.474 21.3479 122.273 23.0805 121.246 26.017C120.335 28.6012 121.481 31.8902 124.554 32.0077C125.149 32.0794 125.75 31.9364 126.249 31.6044C126.748 31.2724 127.112 30.7733 127.275 30.1968C127.608 28.846 126.903 28.0629 126.042 27.1525C125.902 27.0077 125.809 26.8231 125.778 26.6238C125.746 26.4246 125.777 26.2205 125.866 26.0394C125.955 25.8583 126.098 25.7092 126.275 25.6123C126.451 25.5154 126.654 25.4756 126.854 25.4982C128.705 25.7919 129.605 27.7105 129.625 29.4137C129.647 30.2719 129.43 31.1194 128.998 31.8611C128.566 32.6029 127.935 33.2095 127.178 33.613C126.364 34.0021 125.466 34.1851 124.565 34.1459C123.664 34.1066 122.786 33.8463 122.009 33.3879C121.198 32.9038 120.515 32.2327 120.016 31.4307C119.517 30.6287 119.217 29.7189 119.141 28.7774C118.661 24.5781 121.823 21.1913 125.572 19.7915Z" fill="#FFE888"/>
<path d="M103.704 8.76954C104.85 6.33218 108.305 5.3631 110.331 7.37956C110.797 7.87223 111.113 8.48761 111.241 9.15343C111.369 9.81925 111.305 10.5079 111.056 11.1384C110.635 12.2347 109.098 14.0064 107.835 12.9688C107.662 12.8446 107.543 12.6585 107.503 12.449C107.463 12.2395 107.505 12.0226 107.62 11.8432C108.002 11.2167 108.736 11.158 109.049 10.463C109.197 10.1675 109.245 9.83165 109.185 9.50653C109.125 9.18141 108.96 8.88481 108.716 8.66186C107.209 7.33061 105.104 8.66186 104.742 10.3944C104.282 12.6262 105.907 14.5938 107.737 15.6313C109.445 16.5449 111.419 16.8323 113.317 16.4438C115.489 16.0491 117.437 14.859 118.779 13.1059C118.845 13.0059 118.948 12.9364 119.066 12.9125C119.183 12.8886 119.305 12.9124 119.405 12.9786C119.505 13.0448 119.575 13.148 119.599 13.2655C119.623 13.383 119.599 13.5052 119.533 13.6051C118.807 14.6674 117.878 15.575 116.799 16.2755C115.72 16.9759 114.512 17.4552 113.247 17.6856C111.981 17.9159 110.682 17.8928 109.426 17.6175C108.169 17.3421 106.98 16.8201 105.926 16.0816C103.704 14.4176 102.442 11.5103 103.704 8.76954Z" fill="#FFE888"/>
<path d="M95.4526 116.64C95.9421 117.707 96.1672 118.911 96.5979 120.007C97.0223 121.117 97.516 122.199 98.076 123.247C101.641 129.967 107.729 134.995 115 137.225C117.923 138.136 120.964 138.615 124.026 138.645C124.427 138.645 124.378 139.232 124.026 139.252C117.993 139.418 112.054 137.733 107.007 134.424C101.96 131.115 98.0478 126.34 95.7952 120.741C95.2093 119.503 94.8164 118.183 94.6304 116.826C94.5717 116.356 95.2764 116.258 95.4526 116.64Z" fill="#BDBDA2"/>
<path d="M89.1488 119.909C89.1488 120.389 89.2956 120.839 89.2956 121.319C89.2956 121.799 89.2956 122.386 89.2956 122.924C89.338 123.98 89.4393 125.032 89.599 126.076C89.9101 128.153 90.4417 130.191 91.1848 132.155C92.6577 136.045 94.8867 139.605 97.7432 142.629C99.3822 144.339 101.2 145.868 103.166 147.19C103.236 147.237 103.285 147.31 103.301 147.392C103.318 147.475 103.301 147.561 103.254 147.631C103.207 147.701 103.135 147.749 103.052 147.766C102.97 147.782 102.884 147.765 102.814 147.719C95.3743 143.47 90.3136 135.297 88.8355 126.957C88.6332 125.811 88.4992 124.654 88.4342 123.492C88.4342 122.905 88.3755 122.308 88.3755 121.71C88.4062 121.092 88.5013 120.479 88.6593 119.88C88.7278 119.645 89.139 119.674 89.1488 119.909Z" fill="#BDBDA2"/>
<path d="M142.859 88.8991C143.784 89.6152 144.823 90.1711 145.932 90.5435C147.075 90.8663 148.28 90.8966 149.437 90.6316C150.5 90.3688 151.491 89.8722 152.337 89.1779C153.184 88.4836 153.865 87.6092 154.331 86.6183C154.376 86.5049 154.456 86.4086 154.558 86.3433C154.661 86.2779 154.782 86.2468 154.904 86.2544C155.026 86.262 155.142 86.3079 155.236 86.3856C155.33 86.4633 155.397 86.5687 155.427 86.6868C155.825 88.1948 156.738 89.5162 158.007 90.4225C159.276 91.3288 160.822 91.7629 162.377 91.6496C163.968 91.4143 165.428 90.6352 166.51 89.445C167.591 88.2547 168.227 86.7267 168.309 85.1207C168.309 84.6802 168.965 84.7389 168.975 85.1207C169.004 86.551 168.618 87.9591 167.864 89.175C167.11 90.3909 166.021 91.3625 164.727 91.9727C163.446 92.5743 162.018 92.7919 160.616 92.599C159.214 92.4062 157.898 91.8113 156.827 90.8861C155.956 90.1652 155.257 89.2589 154.781 88.2334C153.64 90.0473 151.846 91.3541 149.77 91.8846C147.244 92.5111 143.896 91.8846 142.144 89.7507C142.031 89.6559 141.961 89.5202 141.948 89.3733C141.935 89.2265 141.981 89.0805 142.076 88.9676C142.17 88.8546 142.306 88.784 142.453 88.7711C142.6 88.7583 142.746 88.8043 142.859 88.8991Z" fill="#BDBDA2"/>
<path d="M93.074 56.2247C92.8406 55.7901 92.4991 55.423 92.0824 55.1589C91.6658 54.8949 91.188 54.7427 90.6954 54.7172C90.223 54.703 89.7524 54.7822 89.3106 54.9501C88.8689 55.1181 88.4646 55.3716 88.121 55.6961C87.7673 55.9889 87.4661 56.3397 87.2302 56.7337C86.9579 57.1463 86.8116 57.6293 86.8093 58.1237C86.8093 58.4271 87.1715 58.711 87.4749 58.5054C87.7655 58.2656 88.0166 57.9815 88.2189 57.6636C88.4222 57.3812 88.6446 57.113 88.8845 56.8609C89.3072 56.4269 89.8841 56.1772 90.4898 56.1659C90.741 56.1677 90.9874 56.2352 91.2044 56.3617C91.4394 56.5155 91.626 56.7327 91.7428 56.9882C91.7975 57.1042 91.8402 57.2256 91.87 57.3504C91.9071 57.4913 91.9301 57.6356 91.9385 57.7811C91.9385 57.9768 91.9385 58.1726 91.9385 58.3782C91.9482 58.4954 91.9482 58.6133 91.9385 58.7306C91.9385 58.7306 91.9385 58.8284 91.9385 58.9459C91.9011 59.0684 91.8907 59.1976 91.9083 59.3244C91.9258 59.4513 91.9709 59.5728 92.0402 59.6805C92.1095 59.7882 92.2015 59.8795 92.3097 59.948C92.4179 60.0165 92.5398 60.0606 92.6668 60.0772C92.7938 60.0938 92.9229 60.0825 93.0451 60.0441C93.1673 60.0057 93.2796 59.9411 93.3743 59.8549C93.469 59.7686 93.5437 59.6627 93.5933 59.5446C93.6428 59.4265 93.6661 59.299 93.6613 59.171C93.7243 58.1546 93.5219 57.1393 93.074 56.2247Z" fill="#1F1000"/>
<path d="M108.941 61.7063C108.708 61.2705 108.367 60.9019 107.951 60.6362C107.534 60.3704 107.056 60.2165 106.563 60.1891C105.61 60.1657 104.685 60.5172 103.988 61.1679C103.635 61.4757 103.334 61.8394 103.098 62.2447C102.85 62.6478 102.721 63.1126 102.726 63.5857C102.726 63.8891 103.088 64.1828 103.391 63.9772C103.682 63.7338 103.933 63.4465 104.135 63.1256C104.341 62.8458 104.567 62.5809 104.811 62.3328C105.018 62.1152 105.267 61.9416 105.543 61.8222C105.818 61.7028 106.115 61.6401 106.416 61.6378C106.663 61.6378 106.906 61.7019 107.121 61.8237C107.358 61.979 107.545 62.2001 107.659 62.46C107.72 62.5735 107.763 62.6956 107.786 62.8222C107.823 62.9598 107.846 63.1008 107.855 63.2431C107.869 63.4419 107.869 63.6414 107.855 63.8402V64.1926C107.855 64.1926 107.855 64.3003 107.855 64.4079C107.823 64.5287 107.817 64.6548 107.837 64.778C107.858 64.9012 107.904 65.0186 107.974 65.1225C108.043 65.2263 108.134 65.3143 108.24 65.3804C108.346 65.4466 108.464 65.4895 108.588 65.5063C108.712 65.5231 108.838 65.5134 108.957 65.4778C109.077 65.4422 109.188 65.3816 109.282 65.2999C109.377 65.2183 109.453 65.1175 109.506 65.0042C109.558 64.8909 109.586 64.7677 109.587 64.6429C109.631 63.6245 109.408 62.6125 108.941 61.7063Z" fill="#1F1000"/>
<path d="M56.1416 97.6794C55.1728 99.1531 53.9882 100.473 52.6275 101.595C51.5023 102.42 50.2255 103.015 48.8701 103.347C47.5147 103.678 46.1073 103.739 44.7283 103.526C43.3492 103.314 42.0257 102.831 40.8331 102.107C39.6406 101.382 38.6025 100.43 37.7782 99.3043C40.0198 99.0498 41.9482 97.8752 42.1929 95.2518C42.3433 94.3593 42.1559 93.4428 41.6673 92.6809C41.1787 91.919 40.4239 91.3664 39.5499 91.1308C37.3279 90.7001 35.2038 92.5698 34.7829 94.6645C34.5654 95.7798 34.6533 96.9331 35.0374 98.0024C34.1226 97.7886 33.2471 97.4318 32.4434 96.9453C28.9489 94.8114 27.461 90.8666 27.5491 86.912C27.5512 86.8299 27.5229 86.7501 27.4697 86.6876C27.4164 86.6252 27.342 86.5846 27.2607 86.5737C27.1794 86.5628 27.0969 86.5823 27.0291 86.6284C26.9613 86.6746 26.9129 86.7442 26.8933 86.8239C25.5327 91.1406 28.2931 96.0251 32.0617 98.1786C33.1435 98.7629 34.3257 99.1382 35.5464 99.2847C37.3795 102.241 40.307 104.352 43.6905 105.158C46.4311 105.767 49.2974 105.421 51.8151 104.179C54.135 103.053 56.6311 100.988 57.4533 98.4723C57.747 97.7381 56.6506 97.0334 56.1416 97.6794ZM37.142 93.529C38.483 92.0314 40.7931 92.5502 40.9204 94.6841C41.028 96.6418 39.3346 97.8752 37.5433 98.1297C37.377 98.1393 37.2103 98.1393 37.0441 98.1297C36.3099 96.681 35.9771 94.9092 37.142 93.529Z" fill="#BDBDA2"/>
<path d="M44.2779 74.4315C44.2779 76.0858 30.7402 79.8446 29.037 80.4906C23.7903 82.4483 18.4458 84.2788 13.1012 86.0701C12.6857 86.2514 12.226 86.3059 11.7797 86.2267C11.2369 85.9959 10.8075 85.5595 10.5855 85.013C6.73859 78.2686 3.52793 71.3089 0.209595 64.2807L34.6557 45.5551C38.8284 54.8316 42.0522 64.5063 44.2779 74.4315Z" fill="#D6D6B8"/>
<path d="M44.3072 74.7643C42.6627 72.3073 39.6185 70.5845 37.23 68.8911C34.5462 67.0049 31.7658 65.2602 28.9 63.664C27.9896 63.1648 33.9019 48.3546 33.1971 46.4165C28.7042 47.0723 27.8134 60.1205 26.815 63.7031C26.7599 63.8207 26.7235 63.9463 26.7073 64.0751C26.1494 66.1111 25.5816 68.1472 25.0237 70.193C17.0264 68.1961 8.95078 65.6902 0.816454 64.4177C0.645073 64.3902 0.46957 64.4269 0.323578 64.5208C0.177585 64.6147 0.0713716 64.7591 0.0252911 64.9265C-0.0207895 65.0938 -0.00349582 65.2723 0.073858 65.4277C0.151212 65.5831 0.283185 65.7044 0.444487 65.7685C5.26307 67.4017 10.1641 68.7805 15.1274 69.8993C14.1485 72.2682 13.757 75.1656 13.1697 77.5736C12.4453 80.4221 11.1043 83.711 11.3294 86.6574C11.3339 86.7542 11.3687 86.847 11.429 86.9228C11.4893 86.9986 11.572 87.0534 11.6653 87.0794C11.7586 87.1055 11.8577 87.1014 11.9486 87.0678C12.0394 87.0342 12.1173 86.9728 12.1712 86.8923C13.8059 84.4158 14.2366 80.9213 14.9903 78.0826C15.6364 75.6746 16.7621 72.9338 17.0166 70.3594C19.8455 71.025 22.6744 71.6809 25.4544 72.3954C25.5803 72.4324 25.7125 72.4437 25.8429 72.4285C25.9733 72.4134 26.0993 72.3722 26.2135 72.3073C26.3276 72.2425 26.4276 72.1553 26.5074 72.0511C26.5872 71.9468 26.6452 71.8276 26.6779 71.7004C27.2391 69.7427 27.7906 67.7491 28.3322 65.7196C30.8577 67.2564 33.3733 68.7638 35.8205 70.4279C38.2676 72.092 40.7833 74.5685 43.6514 75.655C44.1114 75.8312 44.5813 75.1852 44.3072 74.7643Z" fill="#BDBDA2"/>
<path d="M29.7222 64.6527C29.7222 65.2987 29.2132 74.8916 27.9113 74.6175C24.9747 74.0106 21.5096 73.6386 18.7688 72.6598C17.3675 72.19 16.2073 71.188 15.5385 69.87C15.2247 69.1482 15.1171 68.3534 15.2277 67.5741C15.3383 66.7948 15.6628 66.0614 16.165 65.4554C18.573 62.6167 21.7641 64.6527 23.3303 67.1977C23.1168 65.6481 23.2952 64.0698 23.8491 62.6069C24.5147 61.2267 26.1396 60.1793 27.5785 60.7079C29.0174 61.2365 29.5852 63.0865 29.7222 64.6527Z" fill="#3192D0"/>
</svg>
