<svg width="185" height="175" viewBox="0 0 185 175" fill="none" xmlns="http://www.w3.org/2000/svg">
<g clip-path="url(#clip0)">
<path d="M97.1276 24.436C96.9148 19.7408 97.7658 13.6585 102.34 12.5915C105.745 11.8445 109.042 14.7256 110.319 17.9268C111.489 21.2347 111.276 24.8628 111.489 28.2774C111.702 31.7988 112.553 35.5335 115.319 37.6677C113.298 34.1463 114.255 29.2378 117.34 26.5701C120.425 23.9024 125.425 23.9024 128.617 26.4634C132.447 29.5579 133.085 35.1067 132.553 40.0152C132.021 44.9238 130.745 49.8323 131.915 54.6341C131.596 51.5396 135.106 49.0854 138.085 49.6189C141.064 50.1524 143.298 52.9268 144.149 55.9146C145 58.9024 144.681 61.9969 144.362 64.9847C143.617 71.6006 142.872 78.4299 140 84.5122C137.128 90.5945 131.915 95.9299 125.319 96.9969C110.319 99.6646 107.766 81.5244 104.894 71.1738C100.638 55.9146 97.9786 40.2286 97.1276 24.436Z" fill="#BDBDA2"/>
<path d="M72.8723 98.4908C64.8935 98.3841 57.234 100.625 49.5744 102.759C35.6382 106.707 21.8084 110.655 7.87226 114.604C4.89354 115.457 1.3829 116.631 0.319068 119.619C-1.38306 124.314 3.93609 128.369 8.61694 129.97C19.8935 133.598 32.5531 133.064 43.5106 128.369C37.7659 130.503 36.2765 139.466 40.9574 143.628C44.7872 147.043 50.851 146.616 55.3191 144.055C59.7872 141.494 62.9786 137.332 66.0638 133.171C63.5106 137.119 60.9574 142.134 63.2978 146.189C65.7446 150.351 72.234 150.351 76.0638 147.363C79.8935 144.375 81.702 139.573 83.4042 134.985C83.6169 138.613 88.085 140.854 91.4893 139.787C94.9999 138.72 97.3403 135.412 98.5106 131.997C105 114.604 89.7872 98.5976 72.8723 98.4908Z" fill="#D6D6B8"/>
<path d="M76.0639 114.817C75.6383 116.098 75.3192 117.271 74.5745 118.338C73.8298 119.405 72.766 120.259 71.5958 120.793C69.4681 121.86 66.8085 121.646 64.6809 120.579C64.149 120.366 63.5107 120.793 63.8298 121.326C65.2128 124.421 64.0426 128.476 61.1702 130.29C58.1915 132.104 54.0426 131.25 51.8085 128.582C51.4894 128.262 50.9575 128.689 51.2766 129.116C53.0851 131.677 56.383 132.744 59.3617 132.104C62.4468 131.463 64.7873 128.902 65.4256 125.915C65.6383 124.741 65.6383 123.46 65.4256 122.287C67.5532 123.033 70 123.033 72.1277 122.073C74.6809 120.899 77.1277 118.125 77.2341 115.137C77.2341 114.39 76.2766 114.177 76.0639 114.817Z" fill="#BDBDA2"/>
<path d="M130.213 44.6036C143.298 51.6463 142.766 71.6006 137.979 84.0853C136.596 87.7134 134.681 91.2347 131.702 93.689C128.723 96.1433 124.468 97.317 120.851 96.0366C116.277 94.3292 113.83 88.9939 114.149 84.192C114.362 79.2835 116.808 74.8018 119.362 70.6402C121.808 66.692 127.021 62.1036 124.042 57.1951C122.553 54.7408 120 53.2469 117.34 52.2866C114.681 51.3262 111.915 50.6859 109.362 49.4055C107.128 48.3384 104.894 46.0975 105.532 43.6433C105.957 42.2561 107.34 41.2957 108.723 40.8689C110.106 40.5487 111.596 40.6555 113.085 40.7622C118.298 41.2957 123.511 41.8292 128.404 43.8567C129.042 43.9634 129.681 44.2835 130.213 44.6036Z" fill="#E07567"/>
<path d="M89.8936 129.329C94.3617 142.668 102.447 154.726 114.362 159.848C124.468 164.223 136.915 161.448 145.106 154.085C153.298 146.723 157.447 135.412 157.34 124.421C157.234 107.454 150.638 96.9969 137.553 86.6463C130.957 81.4177 123.085 77.3628 114.787 76.4024C100.213 74.6951 86.4893 83.5518 85.5319 98.811C85 108.095 86.3829 119.085 89.8936 129.329Z" fill="#F2A685"/>
<path d="M115.957 86.1128C116.915 83.125 115.532 79.1768 112.447 78.3231C106.808 76.8292 91.5956 85.3658 94.8935 92.4085C98.7233 100.412 114.042 92.0884 115.957 86.1128Z" fill="#E07567"/>
<path d="M166.277 131.677C174.042 137.546 176.383 146.082 176.808 155.473C176.915 158.78 177.553 162.622 180.213 164.543C181.383 165.396 182.979 165.823 183.936 166.89C185.106 168.171 185.213 170.305 184.362 171.905C183.511 173.506 181.808 174.466 180 174.787C175 175.747 170.319 171.799 167.553 167.53C164.787 163.262 162.872 158.247 159.042 154.832C155.106 151.204 151.808 151.951 147.128 151.204C142.979 150.564 138.83 147.576 136.383 144.268C133.617 140.534 131.383 135.625 133.404 131.357C135.106 127.835 139.149 126.235 142.979 125.701C151.064 124.527 159.681 126.662 166.277 131.677Z" fill="#E07567"/>
<path d="M157.021 108.094C160.532 114.924 162.979 124.527 160.213 131.997C157.447 139.466 151.915 145.442 148.723 152.591C145.851 158.994 139.681 163.049 133.191 165.61C125.745 168.384 117.128 168.491 110.106 164.756C104.893 161.982 100.957 157.18 98.1914 152.058C96.9148 149.604 95.5318 146.829 94.8935 144.162C94.4679 142.348 94.8935 139.68 93.5105 138.186C100.745 145.122 111.383 145.122 118.191 137.866C124.893 130.716 127.766 120.046 126.596 110.335C124.893 96.3567 116.596 84.192 107.021 73.8414C108.51 75.442 116.596 76.189 119.042 77.0426C123.723 78.75 128.191 80.8841 132.447 83.5518C140.638 88.567 147.872 95.0762 153.51 102.759C154.893 104.466 156.064 106.28 157.021 108.094Z" fill="#D6D6B8"/>
<path d="M135.213 106.921C135.532 108.201 136.064 109.375 136.489 110.549C136.915 111.829 137.128 113.003 137.34 114.284C137.766 116.844 137.872 119.405 137.766 121.966C137.34 127.622 135.426 132.957 132.234 137.652C130.319 140.427 128.085 142.881 125.426 144.909C125.106 145.229 125.532 145.655 125.851 145.442C135.426 138.719 140.213 126.662 138.617 115.137C138.404 113.643 138.085 112.149 137.66 110.655C137.234 109.268 136.808 107.668 136.064 106.494C135.851 106.067 135.106 106.387 135.213 106.921Z" fill="#BDBDA2"/>
<path d="M142.872 105.427C143.191 105.854 143.404 106.28 143.723 106.707C144.043 107.134 144.468 107.668 144.787 108.095C145.426 109.055 146.064 110.015 146.596 110.976C147.66 113.003 148.617 115.03 149.255 117.271C150.638 121.646 151.064 126.128 150.638 130.716C150.426 133.277 149.787 135.838 149.043 138.293C148.936 138.72 149.574 138.933 149.681 138.506C153.191 129.863 152.128 119.405 147.766 111.296C147.128 110.122 146.489 109.055 145.745 107.988C145.426 107.454 145 106.921 144.574 106.387C144.149 105.854 143.617 105.427 143.085 105C143.085 105 142.66 105.213 142.872 105.427Z" fill="#BDBDA2"/>
<path d="M134.149 131.997C141.064 125.168 149.893 124.101 159.149 125.061C162.447 125.381 166.276 125.381 168.617 123.034C169.681 121.966 170.213 120.473 171.489 119.619C172.979 118.659 175.106 118.872 176.489 119.939C177.872 121.006 178.617 122.927 178.723 124.634C178.936 129.756 174.362 133.811 169.787 135.945C165.106 138.079 159.893 139.253 155.957 142.454C151.808 145.869 152.021 149.284 150.638 153.765C149.362 157.82 145.851 161.448 142.128 163.476C138.085 165.61 132.766 167.104 129.042 164.543C125.851 162.409 124.893 158.14 124.893 154.192C124.787 145.976 128.298 137.759 134.149 131.997Z" fill="#F2A685"/>
<path d="M54.468 80.1372C54.2552 81.311 54.0425 82.5915 53.8297 83.7653C52.8723 88.8872 51.9148 94.436 54.0425 99.1311C58.4042 108.735 69.7872 113.003 79.5744 113.963C84.5744 114.497 89.6808 114.177 94.5744 113.003C99.8935 111.723 103.404 106.387 98.7233 101.479C93.2978 95.9299 85.4254 94.3293 78.085 93.5823C70.1063 92.8354 67.0212 87.6067 67.3403 79.9238C67.4467 76.8293 67.6595 73.5214 66.2765 70.747C64.8935 67.9726 61.1701 66.1586 58.6169 67.8659C56.702 69.0396 56.1701 71.4939 55.7446 73.7348C55.3191 75.8689 54.8935 78.0031 54.468 80.1372Z" fill="#F2A685"/>
<path d="M67.0212 91.2348C70.6382 92.4085 74.8936 91.1281 77.234 88.1403C74.7872 85.8994 72.4468 83.6585 69.9999 81.4177C60.6382 72.6677 57.1276 88.1403 67.0212 91.2348Z" fill="#3974B9"/>
<path d="M106.277 30.7317C106.383 29.6646 106.702 28.5975 107.128 27.7439C108.617 25.0762 112.553 24.1158 115 25.9299C117.553 27.6372 118.085 31.692 116.064 34.0396C118.085 33.6128 120 35.1067 120.851 36.9207C121.702 38.7347 121.596 40.8689 121.17 42.8963C120.745 45.0305 120.106 47.1646 118.617 48.6585C110.745 56.875 105.638 35.6402 106.277 30.7317Z" fill="#18599B"/>
<path d="M115.425 53.8872C110.213 43.5365 115.319 33.2926 102.659 27.6372C92.6595 23.1554 80.6382 23.2622 70.9573 28.5975C45.9573 42.3628 48.4041 76.7225 72.5531 89.6341C83.085 95.2896 94.8935 93.9024 105.745 89.2073C111.383 86.8597 116.489 82.9115 119.681 77.5762C121.808 73.8414 122.979 69.4664 122.553 65.1981C122.021 59.6493 117.872 58.5823 115.425 53.8872Z" fill="#F2A685"/>
<path d="M64.0424 70.1067C61.0636 67.8659 56.3828 68.5061 54.0424 71.3872C52.3402 73.5213 52.0211 76.6159 53.1913 78.9634C55.1062 82.9116 60.9573 84.0854 64.1487 81.2043C67.4466 78.3232 67.0211 72.3476 63.4041 70" fill="#F2A685"/>
<path d="M66.0637 65.9451C64.1488 62.8506 62.1275 58.5823 64.5743 55.9146C67.0211 58.1555 70.6381 58.9024 73.7233 57.7287C76.8084 56.5549 79.1488 53.6738 79.4679 50.3659C81.9147 52.8201 85.8509 53.5671 89.1488 52.2866C92.3403 51.0061 94.6807 47.6982 94.7871 44.1768C98.6169 46.0976 103.51 45.3506 106.596 42.4695C109.681 39.5884 110.745 34.6799 109.149 30.7317C115.532 27.8506 118.51 19.1006 115.213 12.8049C111.915 6.50914 102.979 4.16158 97.0211 7.89634C94.4679 2.88109 88.7232 -0.320126 83.1913 0.106704C77.553 0.64024 72.4467 4.80183 70.8509 10.1372C65.319 6.29573 57.1275 7.04268 52.4467 11.7378C50.7445 13.4451 43.5105 29.3445 48.8296 29.9848C43.085 29.2378 37.0211 32.9726 34.9998 38.4146C32.9786 43.9634 35.1062 50.686 39.9998 53.8872C30.7445 60.6098 38.085 76.6159 49.1488 74.1616C48.936 76.5092 51.4892 78.75 53.8296 78.3232C52.7658 78.5366 52.9786 73.7348 53.5105 73.0945C54.3615 72.0274 58.085 71.1738 59.3615 71.4939C60.6381 71.814 61.5956 72.7744 62.4467 73.8415C68.6169 80.8841 68.6169 70.1067 66.0637 65.9451Z" fill="#3974B9"/>
<path d="M107.128 69.4665C107.553 71.2805 106.702 73.4146 105 74.375C104.149 74.6951 103.191 74.8018 102.128 74.6951C101.064 74.5884 100.213 73.9482 99.3616 73.4146C98.7233 72.9878 97.9786 73.7348 98.2978 74.375C98.9361 75.6555 100.319 76.5092 101.596 76.8293C103.085 77.2561 104.574 77.0427 105.957 76.4024C108.617 75.122 110.106 71.814 109.468 68.9329C109.255 67.3323 106.808 67.8659 107.128 69.4665Z" fill="#BD574A"/>
<path d="M87.1276 56.6616C86.1702 56.875 85.2127 57.1951 84.3617 57.7287C82.6595 58.7957 81.1702 60.5031 81.1702 62.6372C81.1702 63.3842 82.234 63.811 82.5531 63.064C82.9787 62.4238 83.4042 61.6768 83.8297 61.1433C84.1489 60.7165 84.8936 60.0762 85.4255 59.7561C85.7446 59.5427 86.1702 59.3293 86.3829 59.3293C86.2765 59.3293 86.5957 59.2226 86.5957 59.2226C86.7021 59.2226 86.8085 59.1159 86.9148 59.1159C87.1276 59.1159 87.3404 59.0092 87.5531 59.0092C87.8723 59.0092 88.0851 58.9024 88.5106 59.0092C89.0425 59.0092 89.5744 59.1159 89.9999 58.9024C90.6382 58.5823 90.6382 57.8354 90.3191 57.3018C89.6808 56.3415 87.9787 56.5549 87.1276 56.6616Z" fill="#3974B9"/>
<path d="M108.936 48.4451C108.298 47.8049 107.34 47.6982 106.383 47.6982C105.532 47.6982 104.681 47.9116 103.83 48.2317C102.34 48.872 101.064 50.0457 100.638 51.6464C100.425 52.5 101.489 53.0335 102.021 52.2866C102.34 51.7531 102.659 51.4329 103.191 51.0061C103.298 51.0061 103.298 50.8994 103.404 50.8994C103.404 50.8994 103.51 50.8994 103.51 50.7927C103.617 50.686 103.723 50.5793 103.936 50.5793C104.042 50.4726 104.255 50.4726 104.361 50.3659C104.468 50.3659 104.468 50.2592 104.574 50.2592C104.574 50.2592 104.574 50.2592 104.681 50.2592C105 50.1524 105.319 50.0457 105.638 50.0457C105.744 50.0457 105.744 50.0457 105.851 50.0457C105.851 50.0457 105.957 50.0457 106.064 50.0457C106.17 50.0457 106.276 50.0457 106.489 50.0457C106.702 50.0457 106.808 50.0457 107.021 50.0457C107.127 50.0457 107.127 50.0457 107.234 50.0457H107.34C107.766 50.1524 108.085 50.2592 108.51 50.2592C108.936 50.1524 109.574 48.9787 108.936 48.4451Z" fill="#3974B9"/>
<path d="M86.5957 73.628C85.7446 73.3079 84.8936 73.628 84.0425 74.0549C83.5106 74.375 83.0851 74.5884 82.5531 74.9085L81.8085 75.3353C81.3829 75.5488 80.9574 75.7622 80.6382 76.0823C80.2127 76.5091 79.6808 77.1494 79.468 77.8963C79.2553 78.4299 79.1489 78.9634 79.468 79.4969C79.7872 80.0305 80.2127 80.3506 80.851 80.4573C81.4893 80.6707 82.3404 80.6707 82.8723 80.564C83.2978 80.4573 83.8297 80.2439 84.1489 80.0305L84.8936 79.7103C85.4255 79.4969 85.9574 79.2835 86.4893 78.9634C87.3404 78.5366 87.9787 78.003 88.2978 77.1494C88.5106 76.5091 88.5106 75.6555 88.1914 75.0152C87.9787 74.2683 87.234 73.8414 86.5957 73.628Z" fill="#F77B59"/>
<path d="M118.723 54.8476C117.872 55.2744 117.021 55.7012 116.276 56.2347C115.957 56.4482 115.638 56.6616 115.425 56.875C115.213 56.9817 115.106 57.0884 114.893 57.3018C114.681 57.5152 114.468 57.8354 114.255 58.0488C114.149 58.2622 114.042 58.3689 113.936 58.5823C113.617 58.9024 113.51 59.5427 113.723 59.9695C114.042 60.3963 114.468 60.7164 115 60.6097C115.425 60.6097 115.851 60.6097 116.276 60.6097C116.596 60.6097 116.808 60.503 117.127 60.3963C117.447 60.2896 117.872 60.1829 118.191 60.0762C119.042 59.7561 119.893 59.2225 120.745 58.7957C121.808 58.2622 122.234 56.875 121.702 55.8079C121.064 54.7408 119.787 54.314 118.723 54.8476Z" fill="#F77B59"/>
<path d="M62.8723 23.9024C58.4042 22.942 53.5106 24.2225 50.851 28.064C48.085 32.1189 49.2553 37.8811 53.9361 39.6951C54.468 39.9085 54.8936 38.9481 54.3616 38.7347C51.2765 37.1341 50.3191 33.2927 51.7021 30.1981C53.1914 26.9969 56.5957 25.3963 59.8936 25.3963C63.085 25.3963 66.8085 26.7835 68.4042 29.7713C69.7872 32.439 69.1489 36.1738 65.851 36.814C64.5744 37.0274 63.1914 36.6006 62.6595 35.3201C62.1276 33.9329 62.6595 32.9725 63.5106 31.7988C64.0425 31.0518 63.2978 29.878 62.3404 30.1981C60.4255 30.8384 59.7872 33.0792 59.9999 34.8933C60.2127 36.814 61.4893 38.4146 63.2978 39.0548C65.2127 39.6951 67.234 39.1616 68.8297 37.9878C70.5319 36.7073 71.2765 34.5731 71.1702 32.5457C71.0638 27.9573 67.1276 24.8628 62.8723 23.9024Z" fill="#6AA1D8"/>
<path d="M84.5744 8.53659C82.9786 6.08232 79.0425 5.6555 77.2339 8.10976C76.3829 9.28354 76.3829 10.9909 77.1276 12.2713C77.7659 13.3384 79.6808 15.0457 80.851 13.6585C81.1701 13.3384 81.2765 12.8049 80.851 12.3781C80.3191 11.7378 79.5744 11.8445 79.0425 11.0976C78.6169 10.4573 78.6169 9.71037 79.1488 9.07013C80.5318 7.46952 82.9786 8.6433 83.7233 10.3506C84.5744 12.6982 83.1914 15.0457 81.3829 16.5396C79.7871 17.8201 77.5531 18.4604 75.5318 18.3537C73.1914 18.247 70.851 17.3933 69.1488 15.686C68.7233 15.2592 67.9786 15.8994 68.4042 16.3262C72.1276 20.5945 79.468 20.9146 83.4042 16.7531C85.5318 14.5122 86.3829 11.2043 84.5744 8.53659Z" fill="#6AA1D8"/>
<path d="M94.5745 64.8781C94.4681 64.3445 94.149 63.5976 93.617 63.2775C93.2979 63.064 92.8724 63.1708 92.5532 63.3842C92.2341 63.5976 92.1277 64.0244 92.2341 64.4512C92.2341 64.6647 92.4468 64.8781 92.5532 65.0915V65.1982C92.5532 65.3049 92.5532 65.3049 92.5532 65.3049C92.5532 65.4116 92.5532 65.4116 92.6596 65.5183V65.625C92.6596 65.7317 92.6596 65.9451 92.6596 66.0519C92.6596 66.1586 92.6596 66.1586 92.6596 66.2653C92.6596 66.2653 92.6596 66.2653 92.6596 66.372C92.6596 66.5854 92.5532 66.6921 92.5532 66.9055V67.0122L92.4468 67.1189C92.4468 67.2256 92.3404 67.2256 92.3404 67.3323L92.2341 67.439L92.1277 67.5458L92.0213 67.6525L91.9149 67.7592L91.8085 67.8659C91.7021 67.8659 91.7021 67.9726 91.5958 67.9726C91.5958 67.9726 91.5958 67.9726 91.4894 67.9726C91.383 67.9726 91.1702 68.0793 91.0638 68.0793C90.9575 68.0793 90.8511 68.0793 90.8511 68.0793C90.7447 68.0793 90.6383 68.0793 90.6383 68.0793H90.5319C90.4255 68.0793 90.2128 67.9726 90.1064 67.9726C90 67.9726 90 67.8659 89.8936 67.8659C90.1064 67.9726 89.8936 67.8659 89.7872 67.8659C89.6809 67.7592 89.4681 67.6525 89.3617 67.6525L89.2553 67.5458C89.1489 67.5458 89.1489 67.439 89.0426 67.439C88.9362 67.3323 88.9362 67.3323 88.8298 67.2256C88.8298 67.2256 88.8298 67.1189 88.7234 67.1189C88.617 66.9055 88.4043 66.7988 88.2979 66.5854C87.9787 66.2653 87.3404 66.372 87.234 66.9055C87.234 67.1189 87.1277 67.439 87.234 67.6525C87.3404 67.8659 87.4468 68.186 87.5532 68.2927C87.8724 68.7195 88.1915 69.0397 88.617 69.3598C89.3617 69.8933 90.3192 70.1067 91.1702 70.1067C93.0851 70 94.6809 68.5061 94.8936 66.5854C94.6809 66.0519 94.6809 65.5183 94.5745 64.8781Z" fill="#594A42"/>
<path d="M111.596 56.875C111.489 56.3415 111.17 55.5945 110.638 55.2744C110.319 55.061 109.894 55.1677 109.574 55.3811C109.255 55.5945 109.149 56.0214 109.255 56.4482C109.255 56.6616 109.468 56.875 109.574 57.0884V57.1951C109.574 57.3018 109.574 57.3019 109.574 57.3019C109.574 57.4086 109.574 57.4086 109.681 57.5153V57.622C109.681 57.7287 109.681 57.9421 109.681 58.0488C109.681 58.1555 109.681 58.1555 109.681 58.2622C109.681 58.2622 109.681 58.2622 109.681 58.3689C109.681 58.5823 109.574 58.689 109.574 58.9025V59.0092L109.468 59.1159C109.468 59.2226 109.362 59.2226 109.362 59.3293L109.255 59.436L109.149 59.5427L109.043 59.6494L108.936 59.7561L108.83 59.8628C108.723 59.8628 108.723 59.9695 108.617 59.9695C108.617 59.9695 108.617 59.9695 108.511 59.9695C108.404 59.9695 108.191 60.0762 108.085 60.0762C107.979 60.0762 107.872 60.0762 107.872 60.0762C107.766 60.0762 107.66 60.0762 107.66 60.0762H107.553C107.447 60.0762 107.234 59.9695 107.128 59.9695C107.021 59.9695 107.021 59.8628 106.915 59.8628C107.128 59.9695 106.915 59.8628 106.808 59.8628C106.702 59.7561 106.489 59.6494 106.383 59.6494L106.277 59.5427C106.17 59.5427 106.17 59.436 106.064 59.436C105.957 59.3293 105.957 59.3293 105.851 59.2226C105.851 59.2226 105.851 59.1159 105.745 59.1159C105.638 58.9025 105.426 58.7958 105.319 58.5823C105 58.2622 104.362 58.3689 104.255 58.9025C104.255 59.1159 104.149 59.436 104.255 59.6494C104.362 59.8628 104.468 60.183 104.574 60.2897C104.894 60.7165 105.213 61.0366 105.638 61.3567C106.383 61.8903 107.34 62.1037 108.191 62.1037C110.106 61.997 111.702 60.5031 111.915 58.5823C111.808 57.9421 111.808 57.4086 111.596 56.875Z" fill="#594A42"/>
</g>
<defs>
<clipPath id="clip0">
<rect width="185" height="175" fill="white"/>
</clipPath>
</defs>
</svg>
